<svg width="167" height="30" viewBox="0 0 167 30" fill="none" xmlns="http://www.w3.org/2000/svg">
<path d="M15.9191 5.89134C15.9191 5.89134 3.17556 5.51536 1.17015 20.8497C0.418193 19.0528 0 17.0894 0 15.0001C0 6.56 6.81067 0.167236 15.8358 0.167236C21.6435 0.167236 26.5321 2.79965 29.2894 6.89404L23.2313 9.61003C21.5177 7.35388 18.8023 5.93327 15.9191 5.93327L15.9191 5.89134Z" fill="white"/>
<path d="M15.9192 24.2757C18.7604 24.2757 21.4764 22.8551 23.1894 20.5987L29.2062 23.2727C26.4482 27.3674 21.6016 30.0001 15.8359 30.0001C14.5824 30.0001 13.3703 29.8743 12.2421 29.6238C11.2397 29.2476 10.2786 28.7466 9.40088 28.036C6.97785 26.0306 6.14203 23.8994 5.84963 22.897C4.84664 19.6795 5.9335 16.6711 6.60159 15.042C6.64352 20.0977 11.1558 24.1924 15.9611 24.1924L15.9192 24.2757Z" fill="#121212"/>
<path d="M53.6622 0.333984H46.7263L34.8599 29.5815H41.5453L45.4725 18.9272L49.9851 7.26507L58.2997 29.5815H65.2775L53.6622 0.333984Z" fill="white"/>
<path d="M84.6375 12.1588C88.9832 13.4539 93.6627 15.3343 93.6627 21.4764C93.6627 26.8245 89.568 29.9162 82.9245 29.9162C78.4541 29.9162 73.816 28.2032 70.4314 25.3619L72.9389 20.0977C75.7795 22.6046 79.9581 24.4009 83.0084 24.4009C85.4734 24.4009 86.9359 23.3146 86.9359 21.4764C86.9359 19.0528 84.2618 18.2589 81.1696 17.3398C76.9077 16.0863 72.0611 14.6657 72.0611 8.69084C72.0611 3.4263 76.3229 0 82.9664 0C86.7687 0 90.7376 1.16987 93.6627 3.13362L91.1972 8.52368C88.2307 6.76874 84.6375 5.55694 82.3397 5.55694C80.2085 5.55694 78.9551 6.47634 78.9551 8.02219C78.9551 10.3619 81.5878 11.1558 84.5956 12.0752L84.6375 12.1588Z" fill="white"/>
<path d="M101.978 29.5815H108.538V0.333984H101.978V29.5815ZM120.78 0.333984V12.618H113.468L112.628 17.9661H120.78V29.5815H127.339V0.333984H120.78Z" fill="white"/>
<path d="M166.883 14.9163C166.883 23.4819 160.073 29.9163 151.047 29.9163C142.023 29.9163 135.212 23.4819 135.212 14.9163C135.212 6.4765 142.023 0.0837402 151.047 0.0837402C160.073 0.0837402 166.883 6.4765 166.883 14.9163ZM151.173 24.1925C155.978 24.1925 160.365 20.1392 160.365 14.9582C160.365 9.81894 155.978 5.80784 151.173 5.80784C146.285 5.80784 141.814 9.81894 141.814 14.9582C141.814 20.0559 146.327 24.1925 151.131 24.1925H151.173Z" fill="white"/>
</svg>
