<svg width="167" height="30" viewBox="0 0 167 30" fill="none" xmlns="http://www.w3.org/2000/svg">
<path d="M15.9191 5.89134C15.9191 5.89134 3.17556 5.51536 1.17015 20.8497C0.418193 19.0528 0 17.0894 0 15.0001C0 6.56 6.81067 0.167236 15.8358 0.167236C21.6435 0.167236 26.5321 2.79965 29.2894 6.89404L23.2313 9.61003C21.5177 7.35388 18.8023 5.93327 15.9191 5.93327L15.9191 5.89134Z" fill="#121212"/>
<path d="M15.9189 24.2757C18.7601 24.2757 21.4761 22.8551 23.1891 20.5987L29.2059 23.2727C26.448 27.3674 21.6014 30.0001 15.8356 30.0001C14.5822 30.0001 13.3701 29.8743 12.2419 29.6238C11.2394 29.2476 10.2784 28.7466 9.40064 28.036C6.97761 26.0306 6.14179 23.8994 5.84939 22.897C4.8464 19.6795 5.93325 16.6711 6.60134 15.042C6.64328 20.0977 11.1556 24.1924 15.9608 24.1924L15.9189 24.2757Z" fill="#121212"/>
<path d="M53.6622 0.333984H46.7263L34.8599 29.5815H41.5453L45.4725 18.9272L49.9851 7.26507L58.2997 29.5815H65.2775L53.6622 0.333984Z" fill="#121212"/>
<path d="M84.6373 12.1588C88.983 13.4539 93.6624 15.3343 93.6624 21.4764C93.6624 26.8245 89.5678 29.9162 82.9243 29.9162C78.4539 29.9162 73.8158 28.2032 70.4312 25.3619L72.9386 20.0977C75.7793 22.6046 79.9578 24.4009 83.0081 24.4009C85.4731 24.4009 86.9356 23.3146 86.9356 21.4764C86.9356 19.0528 84.2616 18.2589 81.1693 17.3398C76.9075 16.0863 72.0609 14.6657 72.0609 8.69084C72.0609 3.4263 76.3227 0 82.9662 0C86.7685 0 90.7374 1.16987 93.6624 3.13362L91.1969 8.52368C88.2305 6.76874 84.6373 5.55694 82.3395 5.55694C80.2083 5.55694 78.9548 6.47634 78.9548 8.02219C78.9548 10.3619 81.5875 11.1558 84.5953 12.0752L84.6373 12.1588Z" fill="#121212"/>
<path d="M101.979 29.5815H108.538V0.333984H101.979V29.5815ZM120.78 0.333984V12.618H113.468L112.628 17.9661H120.78V29.5815H127.34V0.333984H120.78Z" fill="#121212"/>
<path d="M166.883 14.9163C166.883 23.4819 160.072 29.9163 151.047 29.9163C142.023 29.9163 135.212 23.4819 135.212 14.9163C135.212 6.4765 142.023 0.0837402 151.047 0.0837402C160.072 0.0837402 166.883 6.4765 166.883 14.9163ZM151.173 24.1925C155.978 24.1925 160.365 20.1392 160.365 14.9582C160.365 9.81894 155.978 5.80784 151.173 5.80784C146.284 5.80784 141.813 9.81894 141.813 14.9582C141.813 20.0559 146.326 24.1925 151.131 24.1925H151.173Z" fill="#121212"/>
</svg>
