<svg width="167" height="30" viewBox="0 0 167 30" fill="none" xmlns="http://www.w3.org/2000/svg">
<path d="M15.9191 5.89109C15.9191 5.89109 3.17556 5.51512 1.17015 20.8495C0.418193 19.0526 0 17.0891 0 14.9998C0 6.55975 6.81067 0.166992 15.8358 0.166992C21.6435 0.166992 26.5321 2.79941 29.2894 6.8938L23.2313 9.60979C21.5177 7.35364 18.8023 5.93302 15.9191 5.93302L15.9191 5.89109Z" fill="white"/>
<path d="M15.3593 24.2337C18.2006 24.2337 20.9166 22.8131 22.6296 20.5567L28.6463 23.2307C25.8884 27.3254 21.0418 29.9581 15.276 29.9581C14.0226 29.9581 12.8105 29.8323 11.6823 29.5818C10.6799 29.2056 9.71882 28.7046 8.84107 27.994C6.41804 25.9886 5.58222 23.8574 5.28982 22.855C4.28683 19.6375 5.37368 16.6291 6.04177 15C6.08371 20.0557 10.596 24.1504 15.4013 24.1504L15.3593 24.2337Z" fill="#D7DDCB"/>
<path d="M53.6622 0.333984H46.7263L34.8599 29.5815H41.5453L45.4725 18.9272L49.9851 7.26507L58.2997 29.5815H65.2775L53.6622 0.333984Z" fill="white"/>
<path d="M84.6375 12.1588C88.9832 13.4539 93.6627 15.3343 93.6627 21.4764C93.6627 26.8245 89.568 29.9162 82.9245 29.9162C78.4541 29.9162 73.816 28.2032 70.4314 25.3619L72.9389 20.0977C75.7795 22.6046 79.9581 24.4009 83.0084 24.4009C85.4734 24.4009 86.9359 23.3146 86.9359 21.4764C86.9359 19.0528 84.2618 18.2589 81.1696 17.3398C76.9077 16.0863 72.0611 14.6657 72.0611 8.69084C72.0611 3.4263 76.3229 0 82.9664 0C86.7687 0 90.7376 1.16987 93.6627 3.13362L91.1972 8.52368C88.2307 6.76874 84.6375 5.55694 82.3397 5.55694C80.2085 5.55694 78.9551 6.47634 78.9551 8.02219C78.9551 10.3619 81.5878 11.1558 84.5956 12.0752L84.6375 12.1588Z" fill="white"/>
<path d="M101.978 29.5815H108.538V0.333984H101.978V29.5815ZM120.78 0.333984V12.618H113.468L112.628 17.9661H120.78V29.5815H127.339V0.333984H120.78Z" fill="white"/>
<path d="M166.883 14.9161C166.883 23.4817 160.073 29.9161 151.047 29.9161C142.023 29.9161 135.212 23.4817 135.212 14.9161C135.212 6.47626 142.023 0.0834961 151.047 0.0834961C160.073 0.0834961 166.883 6.47626 166.883 14.9161ZM151.173 24.1923C155.978 24.1923 160.365 20.139 160.365 14.958C160.365 9.81869 155.978 5.8076 151.173 5.8076C146.285 5.8076 141.814 9.81869 141.814 14.958C141.814 20.0557 146.327 24.1923 151.131 24.1923H151.173Z" fill="white"/>
</svg>
