<svg width="80" height="80" viewBox="0 0 80 80" fill="none" xmlns="http://www.w3.org/2000/svg">
<path d="M35 41.6666L53.3333 23.3333" stroke="#121212" stroke-width="1.5" stroke-linecap="round" stroke-linejoin="round"/>
<path d="M55.3 9.69996C54.6761 10.3202 54.1811 11.0577 53.8436 11.8701C53.506 12.6824 53.3326 13.5536 53.3333 14.4333V23.3333H62.2333C63.113 23.334 63.9842 23.1606 64.7965 22.823C65.6089 22.4855 66.3465 21.9905 66.9666 21.3666L75 13.3333H63.3333V1.66663L55.3 9.69996Z" stroke="#121212" stroke-width="1.5" stroke-linecap="round" stroke-linejoin="round"/>
<path d="M50.8666 36.6666C51.4072 38.3237 51.6773 40.057 51.6666 41.8C51.6904 45.653 50.3783 49.3953 47.9538 52.39C45.5292 55.3847 42.1419 57.4469 38.3682 58.2255C34.5946 59.0041 30.6677 58.4512 27.2558 56.6607C23.8439 54.8703 21.1577 51.9529 19.6544 48.4051C18.1511 44.8573 17.9235 40.8983 19.0104 37.2016C20.0972 33.5049 22.4314 30.2989 25.6156 28.1293C28.7999 25.9597 32.6375 24.9603 36.4755 25.3014C40.3136 25.6425 43.9149 27.3028 46.6666 30" stroke="#121212" stroke-width="1.5" stroke-linecap="round" stroke-linejoin="round"/>
<path d="M63.3333 31.6666C65.5904 38.1319 65.5676 45.1747 63.2689 51.6253C60.9701 58.0759 56.5337 63.5458 50.6966 67.1266C44.8594 70.7073 37.9729 72.1833 31.181 71.3094C24.3891 70.4354 18.1005 67.2641 13.3601 62.3223C8.61956 57.3805 5.71242 50.9656 5.12156 44.1432C4.5307 37.3208 6.29169 30.5016 10.112 24.8184C13.9323 19.1351 19.582 14.9299 26.1225 12.9013C32.663 10.8727 39.7008 11.1427 46.0666 13.6666" stroke="#121212" stroke-width="1.5" stroke-linecap="round" stroke-linejoin="round"/>
<path d="M16.3 65.1333L5 78.3333" stroke="#121212" stroke-width="1.5" stroke-linecap="round" stroke-linejoin="round"/>
<path d="M53.7002 65.1333L65.0002 78.3333" stroke="#121212" stroke-width="1.5" stroke-linecap="round" stroke-linejoin="round"/>
</svg>
