<svg width="80" height="80" viewBox="0 0 80 80" fill="none" xmlns="http://www.w3.org/2000/svg">
<g clip-path="url(#clip0_5160_123)">
<path d="M28.3333 78.3333H4.99996C4.1159 78.3333 3.26806 77.9821 2.64294 77.357C2.01782 76.7319 1.66663 75.884 1.66663 75V4.99996C1.66663 4.1159 2.01782 3.26806 2.64294 2.64294C3.26806 2.01782 4.1159 1.66663 4.99996 1.66663H49.31C50.1939 1.66681 51.0416 2.01813 51.6666 2.64329L64.0233 15C64.6485 15.6249 64.9998 16.4726 65 17.3566V28.3333" stroke="#121212" stroke-width="1.5" stroke-linecap="round" stroke-linejoin="round"/>
<path d="M11.6666 29.2366L15.2766 32.8433C15.4476 33.0144 15.6537 33.1462 15.8807 33.2296C16.1077 33.313 16.3501 33.3461 16.5911 33.3264C16.8322 33.3067 17.066 33.2349 17.2765 33.1157C17.487 32.9966 17.669 32.8331 17.81 32.6366L25 22.5699" stroke="#121212" stroke-width="1.5" stroke-linecap="round" stroke-linejoin="round"/>
<path d="M35 28.3334H48.3333" stroke="#121212" stroke-width="1.5" stroke-linecap="round" stroke-linejoin="round"/>
<path d="M11.6666 45.9034L15.2766 49.51C15.4476 49.6811 15.6537 49.8129 15.8807 49.8964C16.1077 49.9798 16.3501 50.0128 16.5911 49.9931C16.8322 49.9735 17.066 49.9016 17.2765 49.7825C17.487 49.6634 17.669 49.4999 17.81 49.3034L25 39.2367" stroke="#121212" stroke-width="1.5" stroke-linecap="round" stroke-linejoin="round"/>
<path d="M35 45H48.3333" stroke="#121212" stroke-width="1.5" stroke-linecap="round" stroke-linejoin="round"/>
<path d="M76.2667 50.3966L50.8334 75.8333L38.3334 78.3333L40.8334 65.8333L66.2667 40.3966C67.5894 39.0744 69.3831 38.3315 71.2534 38.3315C73.1236 38.3315 74.9173 39.0744 76.24 40.3966L76.2667 40.4266C76.9221 41.0808 77.4421 41.8579 77.7969 42.7132C78.1517 43.5686 78.3343 44.4856 78.3343 45.4116C78.3343 46.3377 78.1517 47.2546 77.7969 48.11C77.4421 48.9654 76.9221 49.7424 76.2667 50.3966Z" stroke="#121212" stroke-width="1.5" stroke-linecap="round" stroke-linejoin="round"/>
</g>
<defs>
<clipPath id="clip0_5160_123">
<rect width="80" height="80" fill="white"/>
</clipPath>
</defs>
</svg>
