<svg width="80" height="80" viewBox="0 0 80 80" fill="none" xmlns="http://www.w3.org/2000/svg">
<path d="M1.97998 65.1067L7.57665 73.54" stroke="#121212" stroke-width="1.5" stroke-linecap="round" stroke-linejoin="round"/>
<path d="M32.9299 27.55L54.1999 59.5934" stroke="#121212" stroke-width="1.5" stroke-linecap="round" stroke-linejoin="round"/>
<path d="M53.0833 57.9067L6.45664 71.8534L3.09998 66.7934L34.0466 29.2367L53.0833 57.9067Z" stroke="#121212" stroke-width="1.5" stroke-linecap="round" stroke-linejoin="round"/>
<path d="M30.7201 64.5934C31.3562 65.3232 31.836 66.1756 32.1297 67.0981C32.4235 68.0206 32.5251 68.9935 32.4282 69.9568C32.3312 70.92 32.0379 71.8532 31.5662 72.6986C31.0945 73.5441 30.4546 74.2839 29.6858 74.8723C28.917 75.4608 28.0358 75.8854 27.0965 76.1199C26.1572 76.3545 25.1798 76.394 24.2247 76.236C23.2695 76.0781 22.3569 75.726 21.5432 75.2015C20.7294 74.677 20.0318 73.9913 19.4934 73.1867L16.5701 68.7834" stroke="#121212" stroke-width="1.5" stroke-linecap="round" stroke-linejoin="round"/>
<path d="M11.96 41.5334L9.72328 39.1634C9.43169 38.8541 9.26929 38.4451 9.26929 38.02C9.26929 37.595 9.43169 37.186 9.72328 36.8767L15.7233 30.5434L13.7233 22.0567C13.6256 21.6427 13.69 21.207 13.9032 20.8388C14.1164 20.4707 14.4622 20.198 14.87 20.0767L23.23 17.5867L25.72 9.22669C25.8391 8.82417 26.1058 8.48144 26.4667 8.26701C26.8276 8.05257 27.2561 7.98223 27.6666 8.07002L36.15 10.0867L42.4833 4.08669C42.7926 3.7951 43.2016 3.63269 43.6266 3.63269C44.0517 3.63269 44.4607 3.7951 44.77 4.08669L51.1033 10.0867L59.59 8.08669C60.004 7.98904 60.4397 8.05339 60.8078 8.26658C61.1759 8.47977 61.4486 8.82564 61.57 9.23335L64.06 17.5934L72.42 20.0834C72.832 20.2047 73.1812 20.4805 73.3949 20.8531C73.6085 21.2257 73.67 21.6665 73.5666 22.0834L71.58 30.5334L77.58 36.8667C77.8715 37.176 78.034 37.585 78.034 38.01C78.034 38.4351 77.8715 38.8441 77.58 39.1534L71.58 45.4867L73.5966 53.97C73.6952 54.3845 73.6313 54.8211 73.4181 55.1899C73.2048 55.5588 72.8584 55.832 72.45 55.9534L64.0899 58.4434L61.6 66.8034C61.4779 67.2112 61.2044 67.5568 60.8356 67.7694C60.4669 67.982 60.0307 68.0454 59.6166 67.9467L51.1333 65.9467L44.8 71.9467C44.4907 72.2383 44.0817 72.4007 43.6566 72.4007C43.2316 72.4007 42.8226 72.2383 42.5133 71.9467L41.31 70.81" stroke="#121212" stroke-width="1.5" stroke-linecap="round" stroke-linejoin="round"/>
</svg>
