<svg width="80" height="80" viewBox="0 0 80 80" fill="none" xmlns="http://www.w3.org/2000/svg">
<g clip-path="url(#clip0_5160_158)">
<path d="M16.4301 39.91C16.4301 42.9742 17.0336 46.0083 18.2062 48.8393C19.3788 51.6702 21.0975 54.2425 23.2642 56.4092C25.4309 58.5759 28.0032 60.2946 30.8341 61.4672C33.665 62.6398 36.6992 63.2433 39.7634 63.2433C42.8276 63.2433 45.8617 62.6398 48.6927 61.4672C51.5236 60.2946 54.0958 58.5759 56.2625 56.4092C58.4292 54.2425 60.148 51.6702 61.3206 48.8393C62.4932 46.0083 63.0967 42.9742 63.0967 39.91C63.0967 36.8458 62.4932 33.8116 61.3206 30.9807C60.148 28.1498 58.4292 25.5775 56.2625 23.4108C54.0958 21.2441 51.5236 19.5254 48.6927 18.3528C45.8617 17.1802 42.8276 16.5767 39.7634 16.5767C36.6992 16.5767 33.665 17.1802 30.8341 18.3528C28.0032 19.5254 25.4309 21.2441 23.2642 23.4108C21.0975 25.5775 19.3788 28.1498 18.2062 30.9807C17.0336 33.8116 16.4301 36.8458 16.4301 39.91Z" stroke="#121212" stroke-width="1.5" stroke-linecap="round" stroke-linejoin="round"/>
<path d="M23.0967 46.5767L25.5067 42.9634C25.7517 42.5958 26.1327 42.3405 26.5658 42.2536C26.999 42.1667 27.4489 42.2554 27.8167 42.5001L30.1834 44.0767C30.5273 44.3038 30.9432 44.3955 31.3508 44.3339C31.7583 44.2723 32.1286 44.062 32.3901 43.7434L38.5934 36.2934C38.7418 36.1154 38.9256 35.9703 39.1333 35.8674C39.3409 35.7644 39.5676 35.7059 39.7991 35.6956C40.0306 35.6852 40.2617 35.7233 40.4777 35.8073C40.6937 35.8913 40.8897 36.0194 41.0534 36.1834L45.1401 40.2701C45.3039 40.4333 45.5 40.5607 45.7157 40.6441C45.9315 40.7275 46.1623 40.7651 46.3934 40.7544C46.6244 40.7438 46.8508 40.6851 47.058 40.5822C47.2651 40.4793 47.4486 40.3344 47.5967 40.1567L54.7634 31.5601" stroke="#121212" stroke-width="1.5" stroke-linecap="round" stroke-linejoin="round"/>
<path d="M76.8734 45.1833C77.2788 45.1327 77.6514 44.935 77.9205 44.6278C78.1897 44.3205 78.3366 43.9251 78.3334 43.5167V36.47C78.3366 36.0616 78.1897 35.6662 77.9205 35.3589C77.6514 35.0517 77.2788 34.854 76.8734 34.8033L69.3701 33.8667C68.6053 30.1917 67.1519 26.6946 65.0868 23.56L69.7368 17.5767C69.9857 17.2562 70.1092 16.8559 70.0841 16.4509C70.0589 16.0458 69.8868 15.6639 69.6001 15.3767L64.6001 10.3767C64.3129 10.09 63.931 9.91788 63.5259 9.89272C63.1209 9.86756 62.7206 9.99104 62.4001 10.24L56.4168 14.9067C53.2816 12.8418 49.7848 11.3875 46.1101 10.62L45.1834 3.12668C45.1328 2.72137 44.9351 2.34877 44.6279 2.07962C44.3206 1.81047 43.9252 1.66352 43.5168 1.66668H36.4701C36.0617 1.66352 35.6663 1.81047 35.359 2.07962C35.0518 2.34877 34.8541 2.72137 34.8034 3.12668L33.8668 10.6267C30.1967 11.3957 26.7046 12.85 23.5735 14.9133L17.5901 10.2633C17.2696 10.0144 16.8693 9.89089 16.4643 9.91605C16.0593 9.94122 15.6773 10.1133 15.3901 10.4L10.3901 15.4C10.1034 15.6872 9.93132 16.0692 9.90616 16.4742C9.881 16.8792 10.0045 17.2795 10.2535 17.6L14.9201 23.6C12.855 26.7346 11.4016 30.2317 10.6368 33.9067L3.13345 34.8433C2.72814 34.894 2.35554 35.0917 2.08639 35.3989C1.81725 35.7062 1.6703 36.1016 1.67345 36.51V43.57C1.6703 43.9785 1.81725 44.3738 2.08639 44.6811C2.35554 44.9883 2.72814 45.186 3.13345 45.2367L10.6368 46.1733C11.4016 49.8483 12.855 53.3454 14.9201 56.48L10.2635 62.41C10.0145 62.7305 9.891 63.1308 9.91616 63.5358C9.94132 63.9409 10.1134 64.3228 10.4001 64.61L15.4001 69.61C15.6873 69.8967 16.0693 70.0688 16.4743 70.094C16.8793 70.1191 17.2796 69.9956 17.6001 69.7467L23.6001 65.0967C26.7353 67.1615 30.2321 68.6159 33.9068 69.3833L34.8434 76.8833C34.8941 77.2887 35.0918 77.6613 35.399 77.9304C35.7063 78.1995 36.1017 78.3465 36.5101 78.3433H43.5701C43.9786 78.3465 44.3739 78.1995 44.6812 77.9304C44.9884 77.6613 45.1861 77.2887 45.2368 76.8833L46.1734 69.3833C49.8482 68.6159 53.345 67.1615 56.4801 65.0967L62.4634 69.7467C62.7839 69.9956 63.1842 70.1191 63.5893 70.094C63.9943 70.0688 64.3762 69.8967 64.6634 69.61L69.6634 64.61C69.9502 64.3228 70.1222 63.9409 70.1474 63.5358C70.1726 63.1308 70.0491 62.7305 69.8001 62.41L65.1501 56.4267C67.2153 53.2921 68.6686 49.795 69.4334 46.12L76.8734 45.1833Z" stroke="#121212" stroke-width="1.5" stroke-linecap="round" stroke-linejoin="round"/>
</g>
<defs>
<clipPath id="clip0_5160_158">
<rect width="80" height="80" fill="white"/>
</clipPath>
</defs>
</svg>
