<svg width="80" height="80" viewBox="0 0 80 80" fill="none" xmlns="http://www.w3.org/2000/svg">
<path d="M1.67999 76.6666H78.3467" stroke="#121212" stroke-width="1.5" stroke-linecap="round" stroke-linejoin="round"/>
<path d="M15 76.6667V61.6667C15 61.2246 14.8244 60.8007 14.5118 60.4882C14.1993 60.1756 13.7754 60 13.3333 60H6.66667C6.22464 60 5.80072 60.1756 5.48816 60.4882C5.17559 60.8007 5 61.2246 5 61.6667V76.6667" stroke="#121212" stroke-width="1.5" stroke-linecap="round" stroke-linejoin="round"/>
<path d="M35 76.6667V45C35 44.558 34.8244 44.1341 34.5118 43.8215C34.1993 43.509 33.7754 43.3334 33.3333 43.3334H26.6667C26.2246 43.3334 25.8007 43.509 25.4882 43.8215C25.1756 44.1341 25 44.558 25 45V76.6667" stroke="#121212" stroke-width="1.5" stroke-linecap="round" stroke-linejoin="round"/>
<path d="M55 76.6667V51.6667C55 51.2246 54.8244 50.8007 54.5118 50.4882C54.1993 50.1756 53.7754 50 53.3333 50H46.6667C46.2246 50 45.8007 50.1756 45.4882 50.4882C45.1756 50.8007 45 51.2246 45 51.6667V76.6667" stroke="#121212" stroke-width="1.5" stroke-linecap="round" stroke-linejoin="round"/>
<path d="M75 76.6666V28.3333C75 27.8913 74.8244 27.4673 74.5118 27.1548C74.1993 26.8422 73.7754 26.6666 73.3333 26.6666H66.6667C66.2246 26.6666 65.8007 26.8422 65.4882 27.1548C65.1756 27.4673 65 27.8913 65 28.3333V76.6666" stroke="#121212" stroke-width="1.5" stroke-linecap="round" stroke-linejoin="round"/>
<path d="M71.6667 3.33337L52.9333 23.52C52.062 24.4596 50.9383 25.1281 49.6969 25.4456C48.4554 25.763 47.1487 25.716 45.9333 25.31L33.5367 21.1734C32.4593 20.8142 31.308 20.7362 30.192 20.9468C29.0761 21.1574 28.0324 21.6496 27.16 22.3767L10 36.6667" stroke="#121212" stroke-width="1.5" stroke-linecap="round" stroke-linejoin="round"/>
<path d="M58.3467 3.33337H71.68V16.6667" stroke="#121212" stroke-width="1.5" stroke-linecap="round" stroke-linejoin="round"/>
</svg>
