<svg width="141" height="40" viewBox="0 0 141 40" fill="none" xmlns="http://www.w3.org/2000/svg">
<path d="M47.2628 25.4546V9.89819H44.7119V25.4546H47.2628Z" fill="#828282"/>
<path d="M48.824 20.2691C48.824 23.4473 50.9567 25.7055 54.1976 25.7055C57.4385 25.7055 59.5712 23.4473 59.5712 20.2691C59.5712 17.0909 57.4385 14.8328 54.1976 14.8328C50.9567 14.8328 48.824 17.0909 48.824 20.2691ZM51.3958 20.2691C51.3958 18.4082 52.504 17.1119 54.1976 17.1119C55.8913 17.1119 56.9994 18.4082 56.9994 20.2691C56.9994 22.1091 55.8913 23.4264 54.1976 23.4264C52.504 23.4264 51.3958 22.1091 51.3958 20.2691Z" fill="#828282"/>
<path d="M60.4292 20.0601C60.4292 23.071 62.3737 25.2456 65.2801 25.2456C66.7856 25.2456 68.0819 24.6392 68.7301 23.6356V25.3919C68.7301 27.0856 67.6637 28.2147 65.8865 28.2147C64.2974 28.2147 63.2101 27.441 63.0637 26.0819H60.4919C60.8265 28.7792 62.8965 30.5356 65.7401 30.5356C69.0856 30.5356 71.2183 28.3401 71.2183 24.9319V15.1256H68.9601L68.8137 16.5265C68.1865 15.4392 66.8901 14.791 65.3637 14.791C62.4156 14.791 60.4292 17.0283 60.4292 20.0601ZM63.0219 19.9974C63.0219 18.2828 64.1092 17.0283 65.7192 17.0283C67.4756 17.0283 68.6465 18.3037 68.6465 19.9974C68.6465 21.7119 67.4756 23.0292 65.7192 23.0292C64.1301 23.0292 63.0219 21.7328 63.0219 19.9974Z" fill="#828282"/>
<path d="M72.4807 20.2691C72.4807 23.4473 74.6134 25.7055 77.8543 25.7055C81.0953 25.7055 83.228 23.4473 83.228 20.2691C83.228 17.0909 81.0953 14.8328 77.8543 14.8328C74.6134 14.8328 72.4807 17.0909 72.4807 20.2691ZM75.0525 20.2691C75.0525 18.4082 76.1607 17.1119 77.8543 17.1119C79.548 17.1119 80.6562 18.4082 80.6562 20.2691C80.6562 22.1091 79.548 23.4264 77.8543 23.4264C76.1607 23.4264 75.0525 22.1091 75.0525 20.2691Z" fill="#828282"/>
<path d="M85.9886 13.0136C86.825 13.0136 87.515 12.3445 87.515 11.4873C87.515 10.6509 86.825 9.98181 85.9886 9.98181C85.1313 9.98181 84.4832 10.6509 84.4832 11.4873C84.4832 12.3445 85.1313 13.0136 85.9886 13.0136ZM84.7132 25.4545H87.2641V15.1254H84.7132V25.4545Z" fill="#828282"/>
<path d="M89.499 30.2427H91.9874V24.0327C92.6356 25.099 94.0365 25.7263 95.5837 25.7263C98.6365 25.7263 100.456 23.3845 100.414 20.1645C100.351 16.9236 98.4901 14.8118 95.5628 14.8118C93.9947 14.8118 92.5728 15.5018 91.9456 16.6936L91.7992 15.1254H89.499V30.2427ZM92.0919 20.29C92.0919 18.429 93.221 17.1327 94.9983 17.1327C96.7756 17.1327 97.8419 18.45 97.8419 20.29C97.8419 22.13 96.7756 23.4263 94.9983 23.4263C93.221 23.4263 92.0919 22.1509 92.0919 20.29Z" fill="#828282"/>
<path d="M101.061 22.36C101.144 24.409 102.734 25.7263 105.201 25.7263C107.626 25.7263 109.278 24.43 109.278 22.4227C109.278 20.9381 108.358 19.9345 106.664 19.5163L104.845 19.0772C104.072 18.8681 103.549 18.5963 103.549 17.9272C103.549 17.2163 104.114 16.7145 105.034 16.7145C105.995 16.7145 106.623 17.2581 106.623 18.1572H108.944C108.86 16.1081 107.334 14.8118 105.096 14.8118C102.88 14.8118 101.228 16.1081 101.228 18.0736C101.228 19.4118 102.002 20.5199 103.988 21.0427L105.786 21.5027C106.455 21.6909 106.874 22.0045 106.874 22.59C106.874 23.4054 106.1 23.7818 105.159 23.7818C104.03 23.7818 103.382 23.259 103.382 22.36H101.061Z" fill="#828282"/>
<path d="M114.57 25.7264C115.971 25.7264 117.309 25.0782 117.915 24.1164L118.083 25.4546H120.466V15.1255H117.915V20.5409C117.915 22.4019 117.204 23.4473 115.532 23.4473C114.235 23.4473 113.336 22.82 113.336 20.6873V15.1255H110.785V21.5864C110.785 24.0537 112.124 25.7264 114.57 25.7264Z" fill="#828282"/>
<path d="M125.268 25.4545V19.5163C125.268 17.8436 126.251 17.049 127.464 17.049C128.676 17.049 129.471 17.8227 129.471 19.2863V25.4545H131.959V19.5372C131.959 17.8436 132.921 17.049 134.134 17.049C135.367 17.049 136.162 17.8227 136.162 19.2863V25.4545H138.629V18.7009C138.629 16.3172 137.312 14.8118 134.803 14.8118C133.235 14.8118 132.001 15.5645 131.499 16.7772C130.935 15.5645 129.805 14.8118 128.091 14.8118C126.878 14.8118 125.791 15.3763 125.185 16.2963L125.059 15.1254H122.717V25.4545H125.268Z" fill="#828282"/>
<path d="M119.153 34.6854C119.533 34.6854 119.863 34.3654 119.863 33.9854C119.863 33.5954 119.533 33.2754 119.153 33.2754C118.763 33.2754 118.433 33.5954 118.433 33.9854C118.433 34.3654 118.763 34.6854 119.153 34.6854Z" fill="#828282"/>
<path d="M120.596 32.1054C120.596 33.6354 121.536 34.6654 122.906 34.6654C124.086 34.6654 124.986 33.9554 125.176 32.8954H124.276C124.106 33.4854 123.586 33.8354 122.966 33.8354C122.086 33.8354 121.526 33.1554 121.526 32.0954C121.526 31.0154 122.116 30.3554 122.986 30.3554C123.586 30.3554 124.106 30.6754 124.266 31.3054H125.166C125.006 30.2354 124.166 29.5154 122.996 29.5154C121.576 29.5154 120.596 30.5654 120.596 32.1054Z" fill="#828282"/>
<path d="M125.531 32.0954C125.531 33.5654 126.531 34.6654 128.031 34.6654C129.531 34.6654 130.531 33.5654 130.531 32.0954C130.531 30.6254 129.531 29.5254 128.031 29.5254C126.531 29.5254 125.531 30.6254 125.531 32.0954ZM126.481 32.0954C126.481 31.0954 127.091 30.3654 128.031 30.3654C128.971 30.3654 129.581 31.0954 129.581 32.0954C129.581 33.0954 128.971 33.8254 128.031 33.8254C127.091 33.8254 126.481 33.0954 126.481 32.0954Z" fill="#828282"/>
<path d="M132.274 34.5554V31.6154C132.274 30.8454 132.754 30.3454 133.454 30.3454C134.124 30.3454 134.544 30.7754 134.544 31.5454V34.5554H135.464V31.6254C135.464 30.8454 135.934 30.3454 136.644 30.3454C137.304 30.3454 137.724 30.7754 137.724 31.5454V34.5554H138.634V31.3454C138.634 30.2154 137.974 29.5254 136.854 29.5254C136.094 29.5254 135.504 29.8954 135.264 30.4954C135.014 29.8954 134.464 29.5254 133.664 29.5254C133.054 29.5254 132.514 29.8054 132.244 30.2854L132.174 29.6654H131.334V34.5554H132.274Z" fill="#828282"/>
<path fill-rule="evenodd" clip-rule="evenodd" d="M2.31812 20.3958L2.31987 20.2136L2.32349 20.0313L2.32898 19.8491L2.33633 19.6668L2.34557 19.4845L2.35667 19.3022L2.36965 19.1201L2.3845 18.9379L2.40122 18.7558L2.41982 18.5737L2.4403 18.3919L2.46263 18.2101L2.48685 18.0284L2.51294 17.847L2.5409 17.6657L2.57072 17.4847L2.60242 17.3038L2.63598 17.1232L2.67141 16.9429L2.7087 16.7628L2.74785 16.583L2.78885 16.4035L2.83172 16.2244L2.87643 16.0456L2.92301 15.8672L2.97142 15.6891L3.02168 15.5115L3.07378 15.3343L3.12772 15.1576L3.18348 14.9813L3.24108 14.8055L3.30051 14.6301L3.36175 14.4553L3.42481 14.2811L3.48968 14.1073L3.55635 13.9341L3.62483 13.7616L3.69511 13.5896L3.76717 13.4183L3.84102 13.2476L3.91664 13.0775L3.99404 12.9081L4.07321 12.7395L4.15413 12.5715L4.23681 12.4042L4.32124 12.2378L4.40741 12.0721L4.49531 11.9071L4.58492 11.743L4.67626 11.5796L4.76932 11.4171L4.86406 11.2554L4.96051 11.0946L5.05863 10.9347L5.15844 10.7757L5.25991 10.6176L5.36305 10.4605L5.46784 10.3042L5.57427 10.1491L5.68233 9.99478L5.79201 9.84151L5.90331 9.68933L6.01621 9.53806L6.1307 9.38796L6.24678 9.23887L6.36442 9.09082L6.48363 8.94391L6.6044 8.79811L6.7267 8.65344L6.85053 8.5099L6.97589 8.36753L7.10274 8.22634L7.2311 8.08633L7.36094 7.94753L7.49225 7.80995L7.62502 7.6736L7.75924 7.5385L7.8949 7.40466L8.03198 7.27211L8.17047 7.14085L8.31036 7.0109L8.45163 6.88226L8.59428 6.75497L8.73829 6.62903L8.88364 6.50444L9.03032 6.38124L9.17832 6.25943L9.32763 6.13902L9.47823 6.02003L9.63011 5.90246L9.78321 5.78636L9.93766 5.67169L10.0933 5.55851L10.2501 5.44681L10.4081 5.3366L10.5674 5.2279L10.7278 5.12071L10.8893 5.01506L11.052 4.91096L11.2159 4.80841L11.3808 4.70743L11.5469 4.60802L11.714 4.51021L11.8822 4.414L12.0515 4.3194L12.2218 4.22643L12.393 4.13508L12.5653 4.04539L12.7386 3.95735L12.9128 3.87097L13.088 3.78627L13.2642 3.70326L13.4412 3.62194L13.6192 3.54233L13.798 3.46443L13.9778 3.38826L14.1583 3.31382L14.3397 3.24112L14.5218 3.17016L14.7048 3.10098L14.8886 3.03356L15.0731 2.96792L15.2584 2.90406L15.4444 2.84198L15.631 2.78172L15.8184 2.72326L16.0065 2.66661L16.1952 2.61179L16.3845 2.5588L16.5745 2.50764L16.765 2.45832L16.9561 2.41086L17.1477 2.36526L17.34 2.3215L17.5327 2.27963L17.7259 2.23962L17.9197 2.20149L18.1138 2.16526L18.3085 2.1309L18.5036 2.09845L18.699 2.06789L18.8948 2.03924L19.091 2.0125L19.2876 1.98767L19.4845 1.96476L19.6817 1.94376L19.8791 1.92471L20.0768 1.90757L20.2748 1.89236L20.473 1.8791L21.5388 1.81824L21.5997 6.95339L21.6345 6.95299L21.7817 6.95278L21.9288 6.95402L22.076 6.9567L22.2234 6.96084L22.3707 6.96642L22.518 6.97344L22.6654 6.98192L22.8127 6.99186L22.96 7.00323L23.1074 7.01606L23.2546 7.03036L23.4017 7.0461L23.5488 7.06329L23.6957 7.08194L23.8426 7.10204L23.9893 7.12358L24.1358 7.14659L24.2823 7.17105L24.4285 7.19695L24.5746 7.2243L24.7204 7.2531L24.8659 7.28336L25.0114 7.31505L25.1565 7.34818L25.3013 7.38276L25.4459 7.41877L25.5902 7.45624L25.7341 7.49513L25.8777 7.53546L26.0211 7.57721L26.164 7.62039L26.3066 7.665L26.4487 7.71104L26.5906 7.75849L26.7319 7.80736L26.8728 7.85764L27.0134 7.90932L27.1534 7.96242L27.2929 8.01691L27.432 8.07281L27.5706 8.1301L27.7086 8.18877L27.8461 8.24884L27.9831 8.31028L28.1195 8.3731L28.2553 8.43728L28.3906 8.50284L28.5252 8.56976L28.6592 8.63803L28.7926 8.70765L28.9253 8.77861L29.0574 8.85092L29.1887 8.92456L29.3195 8.99952L29.4495 9.0758L29.5787 9.15342L29.7073 9.23233L29.8351 9.31251L29.9621 9.39406L30.0884 9.47678L30.2138 9.56087L30.3386 9.64624L30.4624 9.73278L30.5855 9.82069L30.7077 9.90978L30.8289 10.0001L30.9495 10.0918L31.069 10.1846L31.1877 10.2787L31.3055 10.3739L31.4224 10.4703L31.5383 10.5681L31.6533 10.6669L31.7674 10.7669L31.8805 10.8681L31.9925 10.9704L32.1036 11.074L32.2137 11.1786L32.3227 11.2843L32.4307 11.3912L32.5377 11.4992L32.6437 11.6084L32.7486 11.7186L32.8523 11.8299L32.955 11.9422L33.0566 12.0557L33.157 12.1701L33.2564 12.2857L33.3546 12.4022L33.4517 12.5198L33.5476 12.6384L33.6423 12.758L33.7358 12.8785L33.8282 13.0001L33.9194 13.1226L34.0093 13.2461L34.098 13.3705L34.1855 13.4959L34.2717 13.6221L34.3567 13.7492L34.4405 13.8773L34.5229 14.0063L34.604 14.1361L34.6839 14.2668L34.7625 14.3983L34.8397 14.5307L34.9157 14.6639L34.9903 14.7979L35.0636 14.9327L35.1355 15.0682L35.206 15.2046L35.2752 15.3417L35.343 15.4795L35.4095 15.6181L35.4746 15.7574L35.5382 15.8974L35.6005 16.0381L35.6613 16.1795L35.7207 16.3216L35.7787 16.4642L35.8352 16.6076L35.8903 16.7515L35.9439 16.8961L35.9961 17.0412L36.0468 17.1871L36.0961 17.3333L36.1439 17.4802L36.1902 17.6276L36.235 17.7755L36.2783 17.924L36.3201 18.0729L36.3604 18.2223L36.3992 18.3722L36.4364 18.5225L36.4722 18.6733L36.5064 18.8245L36.539 18.9761L36.5702 19.1281L36.5997 19.2805L36.6277 19.4332L36.6543 19.5863L36.6792 19.7397L36.7026 19.8934L36.7244 20.0475L36.7446 20.2018L36.7632 20.3564L36.7803 20.5112L36.7957 20.6663L36.8097 20.8216L36.822 20.9771L36.8327 21.1329L36.8418 21.2888L36.8494 21.4448L36.8554 21.6011L36.8597 21.7573L36.8625 21.9138L36.8636 22.0703L36.8631 22.227L36.861 22.3837L36.8573 22.5405L36.852 22.6972L36.8451 22.8541L36.8367 23.0109L36.8265 23.1677L36.8147 23.3245L36.8014 23.4812L36.7864 23.638L36.7698 23.7946L36.7516 23.9511L36.7317 24.1075L36.7104 24.2638L36.6873 24.42L36.6627 24.576L36.6364 24.7318L36.6085 24.8874L36.579 25.0429L36.5479 25.1981L36.5152 25.3531L36.4808 25.5079L36.4449 25.6624L36.4075 25.8166L36.3683 25.9705L36.3276 26.1241L36.2853 26.2773L36.2414 26.4302L36.1959 26.5828L36.1488 26.7351L36.1001 26.8868L36.0499 27.0382L35.9981 27.1891L35.9447 27.3397L35.8897 27.4898L35.8332 27.6393L35.7751 27.7884L35.7155 27.9371L35.6543 28.0851L35.5916 28.2327L35.5273 28.3798L35.4615 28.5261L35.3941 28.6721L35.3252 28.8173L35.2548 28.962L35.1828 29.1061L35.1095 29.2494L35.0345 29.3922L34.9581 29.5342L34.8801 29.6757L34.8007 29.8163L34.7198 29.9563L34.6375 30.0956L34.5537 30.2341L34.4684 30.3719L34.3816 30.5088L34.2934 30.645L34.2038 30.7803L34.1127 30.9149L34.0203 31.0486L33.9264 31.1815L33.8311 31.3135L33.7344 31.4447L33.6363 31.575L33.5368 31.7043L33.436 31.8327L33.3338 31.9602L33.2303 32.0868L33.1254 32.2123L33.0191 32.337L32.9116 32.4606L32.8027 32.5832L32.6925 32.7049L32.581 32.8255L32.4683 32.9451L32.3542 33.0636L32.2389 33.181L32.1223 33.2973L32.0045 33.4126L31.8855 33.5268L31.7652 33.6399L31.6438 33.7518L31.521 33.8626L31.3971 33.9721L31.2721 34.0806L31.1458 34.188L31.0185 34.2941L30.8899 34.3989L30.7603 34.5026L30.6295 34.6051L30.4976 34.7062L30.3646 34.8061L30.2305 34.9049L30.0954 35.0023L29.9591 35.0984L29.8218 35.1933L29.6836 35.2869L29.5443 35.3791L29.4039 35.47L29.2627 35.5596L29.1204 35.6478L28.9771 35.7347L28.8328 35.8201L28.6877 35.9043L28.5417 35.9871L28.3946 36.0683L28.2467 36.1483L28.0979 36.2268L27.9483 36.3039L27.7977 36.3796L27.6464 36.4538L27.4942 36.5265L27.3412 36.5979L27.1874 36.6677L27.0328 36.7361L26.8775 36.8029L26.7214 36.8682L26.5646 36.9321L26.407 36.9945L26.2487 37.0553L26.0897 37.1147L25.9301 37.1724L25.7697 37.2287L25.6088 37.2833L25.4473 37.3365L25.285 37.3881L25.1222 37.4381L24.9588 37.4865L24.7949 37.5333L24.6304 37.5786L24.4654 37.6223L24.2997 37.6643L24.1337 37.7048L23.9672 37.7437L23.8001 37.7809L23.6327 37.8165L23.4647 37.8505L23.2964 37.8829L23.1277 37.9136L22.9586 37.9426L22.789 37.9701L22.6192 37.9959L22.4489 38.02L22.2785 38.0424L22.1077 38.0632L21.9365 38.0823L21.7651 38.0998L21.5935 38.1156L21.4217 38.1297L21.2496 38.1421L21.0773 38.1529L20.9047 38.162L20.7321 38.1693L20.5594 38.175L20.3864 38.179L20.2134 38.1812L20.0402 38.1819L19.867 38.1808L19.6937 38.178L19.5204 38.1735L19.347 38.1672L19.1737 38.1593L19.0003 38.1498L18.827 38.1384L18.6537 38.1254L18.4805 38.1107L18.3073 38.0942L18.1342 38.0761L17.9613 38.0563L17.7885 38.0348L17.6158 38.0115L17.4433 37.9865L17.2709 37.9599L17.0988 37.9315L16.9269 37.9015L16.7552 37.8697L16.5838 37.8362L16.4127 37.8011L16.2418 37.7642L16.0712 37.7257L15.901 37.6855L15.7311 37.6436L15.5616 37.6L15.3924 37.5547L15.2237 37.5078L15.0553 37.4591L14.8873 37.4089L14.7198 37.3569L14.5528 37.3032L14.3863 37.248L14.2202 37.191L14.0547 37.1323L13.8897 37.0721L13.7252 37.0102L13.5613 36.9467L13.398 36.8815L13.2353 36.8147L13.0732 36.7462L12.9118 36.6762L12.7509 36.6046L12.5908 36.5313L12.4313 36.4564L12.2726 36.38L12.1146 36.3019L11.9572 36.2222L11.8007 36.1411L11.6449 36.0582L11.4898 35.974L11.3357 35.8881L11.1823 35.8006L11.0298 35.7116L10.878 35.6211L10.7272 35.5291L10.5772 35.4354L10.4281 35.3404L10.28 35.2438L10.1328 35.1458L9.98648 35.0461L9.84121 34.9451L9.69684 34.8427L9.55349 34.7387L9.41114 34.6333L9.26981 34.5264L9.12953 34.4181L8.9903 34.3085L8.85212 34.1973L8.71504 34.0849L8.57905 33.971L8.44417 33.8557L8.31041 33.7391L8.17781 33.621L8.04635 33.5016L7.91607 33.381L7.78696 33.2589L7.65906 33.1356L7.53237 33.0109L7.4069 32.885L7.28267 32.7578L7.1597 32.6292L7.03799 32.4995L6.91756 32.3685L6.79843 32.2362L6.68061 32.1028L6.5641 31.9681L6.44892 31.8322L6.3351 31.6952L6.22263 31.557L6.11153 31.4176L6.00182 31.2771L5.89351 31.1354L5.7866 30.9926L5.68111 30.8487L5.57705 30.7037L5.47443 30.5576L5.37328 30.4105L5.27359 30.2623L5.17538 30.1131L5.07866 29.9629L4.98343 29.8116L4.88972 29.6593L4.79754 29.5061L4.70689 29.3519L4.61779 29.1968L4.53023 29.0407L4.44424 28.8837L4.35983 28.7257L4.277 28.5669L4.19577 28.4072L4.11613 28.2467L4.03812 28.0853L3.96173 27.9231L3.88697 27.7601L3.81385 27.5961L3.74238 27.4316L3.67257 27.2661L3.60443 27.1001L3.53796 26.9331L3.47318 26.7655L3.4101 26.5972L3.34871 26.4282L3.28902 26.2586L3.23105 26.0883L3.17481 25.9173L3.1203 25.7458L3.06752 25.5736L3.01649 25.4009L2.96721 25.2275L2.91968 25.0536L2.87392 24.8792L2.82992 24.7043L2.78771 24.5289L2.74728 24.353L2.70863 24.1765L2.67178 23.9997L2.63672 23.8224L2.60347 23.6448L2.57202 23.4667L2.5424 23.2882L2.51458 23.1094L2.48859 22.9302L2.46442 22.7507L2.4421 22.5709L2.4216 22.3908L2.40293 22.2104L2.38612 22.0299L2.37114 21.849L2.35802 21.6679L2.34674 21.4866L2.33732 21.3051L2.32976 21.1235L2.32405 20.9418L2.32021 20.7599L2.31823 20.5779L2.31812 20.3958ZM19.9346 7.06096L19.8931 3.56077L19.8537 3.56457L19.673 3.58381L19.4927 3.60479L19.3126 3.62756L19.1331 3.65201L18.9538 3.67825L18.7748 3.70624L18.5962 3.73595L18.4178 3.76743L18.2404 3.80055L18.0627 3.83552L17.8862 3.87206L17.7095 3.91046L17.5337 3.95047L17.358 3.99227L17.1832 4.03567L17.0088 4.08082L16.8349 4.12765L16.6616 4.17616L16.489 4.22631L16.3168 4.27818L16.1454 4.33166L15.9745 4.38685L15.8045 4.44356L15.6348 4.50206L15.4659 4.56212L15.2979 4.62377L15.1304 4.68711L14.9638 4.75199L14.798 4.81844L14.6328 4.88659L14.4683 4.95629L14.3047 5.02758L14.1419 5.10037L13.98 5.17475L13.819 5.25062L13.6586 5.32816L13.4993 5.40713L13.3408 5.48763L13.1833 5.56965L13.0267 5.65318L12.8711 5.73815L12.7162 5.82468L12.5623 5.91272L12.4098 6.00201L12.2577 6.09305L12.107 6.18529L11.9574 6.27897L11.8085 6.37419L11.6608 6.4708L11.5141 6.56882L11.3688 6.66799L11.2241 6.76892L11.0808 6.87093L10.9387 6.97435L10.7975 7.07918L10.6576 7.18526L10.5189 7.29262L10.3811 7.40148L10.2448 7.51138L10.1096 7.62273L9.97557 7.73528L9.84275 7.84915L9.7113 7.9641L9.58082 8.08051L9.45184 8.19795L9.32396 8.31676L9.19756 8.43656L9.07231 8.55765L8.94846 8.67985L8.82587 8.80325L8.70447 8.92792L8.58466 9.05345L8.4662 9.18005L8.34879 9.30815L8.23301 9.43706L8.11864 9.56687L8.00545 9.69806L7.89391 9.83005L7.7836 9.96324L7.67477 10.0973L7.56737 10.2325L7.46137 10.3686L7.35693 10.5056L7.25386 10.6436L7.15221 10.7827L7.05219 10.9224L6.95351 11.0633L6.8564 11.205L6.76079 11.3475L6.66661 11.491L6.57403 11.6352L6.48297 11.7802L6.39343 11.9261L6.3055 12.0728L6.21901 12.2203L6.13407 12.3687L6.05081 12.5176L5.96903 12.6673L5.88882 12.8179L5.81024 12.9691L5.73321 13.121L5.65782 13.2734L5.58402 13.4266L5.51183 13.5804L5.44122 13.735L5.37229 13.89L5.30491 14.0457L5.23919 14.202L5.17514 14.3587L5.1127 14.5161L5.05189 14.674L4.99275 14.8323L4.93525 14.9912L4.87945 15.1505L4.82526 15.3104L4.77275 15.4707L4.72192 15.6314L4.67278 15.7924L4.62527 15.9541L4.57948 16.1159L4.53536 16.2781L4.49292 16.4407L4.45216 16.6037L4.41311 16.7669L4.37574 16.9304L4.34007 17.0942L4.3061 17.2583L4.27382 17.4226L4.24324 17.5871L4.21437 17.7519L4.1872 17.9169L4.16173 18.082L4.13797 18.2472L4.11592 18.4127L4.09556 18.5782L4.07692 18.7439L4.05998 18.9097L4.04475 19.0755L4.03122 19.2413L4.01941 19.4073L4.0093 19.5733L4.00089 19.7392L3.99419 19.9052L3.98919 20.0711L3.9859 20.2371L3.9843 20.4029L3.98441 20.5687L3.98621 20.7343L3.98971 20.9L3.9949 21.0654L4.00178 21.2307L4.01036 21.3959L4.02062 21.5608L4.03256 21.7256L4.04619 21.8901L4.0615 22.0545L4.07847 22.2187L4.09712 22.3825L4.11744 22.5461L4.13942 22.7094L4.16307 22.8724L4.18838 23.0351L4.21532 23.1974L4.24393 23.3594L4.27418 23.5211L4.30606 23.6822L4.33958 23.8431L4.37472 24.0035L4.4115 24.1635L4.44989 24.3231L4.48989 24.4821L4.53151 24.6408L4.57471 24.7988L4.61952 24.9564L4.66592 25.1135L4.71391 25.2701L4.76347 25.4261L4.81459 25.5814L4.86728 25.7362L4.92153 25.8904L4.97733 26.0441L5.03466 26.197L5.09356 26.3493L5.15395 26.501L5.21587 26.652L5.27931 26.8022L5.34425 26.9518L5.4107 27.1007L5.47862 27.2489L5.54803 27.3962L5.61891 27.5429L5.69125 27.6887L5.76504 27.8338L5.84029 27.9781L5.91696 28.1215L5.99507 28.2641L6.07459 28.4059L6.15551 28.5468L6.23784 28.6869L6.32157 28.826L6.40663 28.9642L6.49312 29.1016L6.58093 29.238L6.67011 29.3735L6.76063 29.5081L6.85246 29.6416L6.94561 29.7742L7.04009 29.9059L7.13583 30.0365L7.2329 30.1661L7.33119 30.2947L7.4308 30.4222L7.5316 30.5487L7.63367 30.6741L7.737 30.7986L7.84148 30.9219L7.94721 31.0441L8.05411 31.1651L8.16222 31.2851L8.27148 31.404L8.38187 31.5217L8.49343 31.6382L8.60611 31.7537L8.71995 31.868L8.83486 31.981L8.9509 32.0929L9.06797 32.2035L9.18612 32.3131L9.30537 32.4213L9.42563 32.5283L9.54686 32.6341L9.66921 32.7386L9.79257 32.8419L9.91675 32.9439L10.0421 33.0447L10.1683 33.1441L10.2955 33.2422L10.4236 33.3391L10.5527 33.4347L10.6826 33.5289L10.8134 33.6218L10.945 33.7133L11.0777 33.8036L11.211 33.8924L11.3454 33.98L11.4804 34.0661L11.6163 34.1509L11.753 34.2343L11.8904 34.3163L12.0287 34.397L12.1676 34.4761L12.3073 34.554L12.4477 34.6303L12.5888 34.7053L12.7306 34.7789L12.873 34.8511L13.0162 34.9217L13.16 34.991L13.3044 35.0588L13.4494 35.1251L13.5949 35.19L13.7412 35.2534L13.8879 35.3153L14.0353 35.3759L14.1831 35.4349L14.3315 35.4923L14.4804 35.5484L14.6297 35.603L14.7795 35.656L14.9298 35.7075L15.0806 35.7576L15.2318 35.8061L15.3832 35.8531L15.5353 35.8987L15.6876 35.9427L15.8403 35.9851L15.9934 36.0261L16.1468 36.0656L16.3005 36.1035L16.4544 36.1399L16.6088 36.1748L16.7633 36.2081L16.918 36.2399L17.0731 36.2701L17.2284 36.2989L17.3838 36.3261L17.5395 36.3517L17.6953 36.3758L17.8513 36.3983L18.0075 36.4193L18.1637 36.4389L18.32 36.4568L18.4765 36.4731L18.633 36.4881L18.7897 36.5013L18.9463 36.5131L19.1029 36.5233L19.2597 36.5321L19.4163 36.5391L19.5729 36.5448L19.7296 36.5489L19.8862 36.5513L20.0427 36.5523L20.1991 36.5518L20.3555 36.5497L20.5117 36.5461L20.6678 36.541L20.8237 36.5343L20.9796 36.5261L21.1351 36.5164L21.2906 36.5052L21.4458 36.4925L21.6008 36.4782L21.7556 36.4624L21.9101 36.4451L22.0643 36.4264L22.2183 36.4061L22.3719 36.3843L22.5253 36.3611L22.6783 36.3363L22.831 36.3101L22.9834 36.2823L23.1353 36.2531L23.2868 36.2225L23.438 36.1903L23.5887 36.1568L23.739 36.1217L23.8889 36.0851L24.0383 36.0472L24.1872 36.0078L24.3356 35.967L24.4836 35.9247L24.6309 35.881L24.7778 35.8359L24.9241 35.7894L25.0699 35.7414L25.2151 35.6921L25.3596 35.6414L25.5037 35.5892L25.647 35.5358L25.7897 35.4809L25.9318 35.4247L26.0732 35.3671L26.2139 35.3081L26.354 35.2479L26.4934 35.1862L26.6319 35.1233L26.7699 35.0591L26.9071 34.9934L27.0435 34.9266L27.1792 34.8583L27.314 34.7889L27.4481 34.7181L27.5815 34.6461L27.7138 34.5728L27.8455 34.4982L27.9762 34.4225L28.1063 34.3454L28.2352 34.2672L28.3636 34.1877L28.4907 34.1071L28.6171 34.0251L28.7427 33.9421L28.8673 33.8577L28.9907 33.7724L29.1134 33.6858L29.2351 33.5981L29.3558 33.5092L29.4757 33.4191L29.5943 33.3281L29.7122 33.2358L29.8288 33.1425L29.9445 33.0481L30.0593 32.9526L30.1729 32.856L30.2854 32.7584L30.3969 32.6597L30.5073 32.5601L30.6167 32.4593L30.7249 32.3576L30.8319 32.255L30.938 32.1511L31.0429 32.0464L31.1467 31.9408L31.2493 31.8341L31.3507 31.7267L31.4508 31.6183L31.5501 31.5087L31.6479 31.3985L31.7447 31.2872L31.8402 31.1752L31.9346 31.0622L32.0277 30.9485L32.1195 30.8339L32.2102 30.7183L32.2996 30.6021L32.3878 30.485L32.4747 30.3671L32.5604 30.2484L32.6449 30.1289L32.7278 30.0089L32.8097 29.8879L32.8902 29.7663L32.9695 29.6439L33.0476 29.5207L33.1241 29.3971L33.1994 29.2727L33.2735 29.1473L33.346 29.0218L33.4174 28.8953L33.4875 28.7682L33.556 28.6408L33.6234 28.5124L33.6894 28.3835L33.7538 28.2545L33.8171 28.1244L33.879 27.9939L33.9395 27.863L33.9986 27.7315L34.0563 27.5995L34.1126 27.4671L34.1676 27.3341L34.2211 27.2006L34.2732 27.0671L34.3239 26.9325L34.3732 26.798L34.4212 26.6628L34.4677 26.5273L34.5128 26.3914L34.5564 26.2555L34.5987 26.1186L34.6395 25.9819L34.6788 25.8447L34.7168 25.7073L34.7534 25.5694L34.7884 25.4315L34.8221 25.2931L34.8543 25.1545L34.8851 25.0158L34.9145 24.8767L34.9423 24.7377L34.9687 24.5981L34.9937 24.4588L35.0173 24.319L35.0394 24.1791L35.06 24.0391L35.0793 23.899L35.097 23.759L35.1134 23.6183L35.1282 23.4782L35.1417 23.3377L35.1536 23.1974L35.1641 23.0567L35.1732 22.9165L35.1808 22.7759L35.187 22.6351L35.1917 22.4948L35.1951 22.3547L35.1969 22.2141L35.1974 22.0737L35.1964 21.9335L35.1939 21.7934L35.19 21.6533L35.1847 21.5138L35.1779 21.3737L35.1697 21.2342L35.1601 21.0948L35.1491 20.9558L35.1367 20.8165L35.1228 20.6779L35.1076 20.5391L35.0908 20.4009L35.0727 20.2627L35.0533 20.125L35.0323 19.9871L35.01 19.85L34.9864 19.7132L34.9613 19.5764L34.9347 19.4401L34.9069 19.3042L34.8777 19.1683L34.8472 19.0334L34.8151 18.8983L34.7819 18.7641L34.7471 18.6298L34.7111 18.4964L34.6737 18.3632L34.635 18.2303L34.595 18.0982L34.5537 17.9666L34.5108 17.8351L34.4669 17.7045L34.4215 17.5741L34.3749 17.4444L34.3269 17.3151L34.2777 17.1866L34.2271 17.0583L34.1753 16.9308L34.1223 16.8041L34.068 16.6779L34.0122 16.5519L33.9556 16.4271L33.8973 16.3023L33.838 16.1788L33.7775 16.0557L33.7156 15.9331L33.6527 15.8114L33.5884 15.6903L33.5228 15.5698L33.4565 15.4504L33.3886 15.3313L33.3197 15.2132L33.2494 15.0957L33.1783 14.9793L33.1057 14.8632L33.0322 14.7482L32.9574 14.6338L32.8816 14.5203L32.8047 14.4079L32.7266 14.2959L32.6474 14.1849L32.5672 14.0747L32.4858 13.9655L32.4035 13.857L32.32 13.7495L32.2356 13.6428L32.15 13.5371L32.0635 13.4322L31.9758 13.3282L31.8872 13.2252L31.7977 13.1231L31.7072 13.0221L31.6157 12.9219L31.5229 12.8225L31.4297 12.7245L31.335 12.6271L31.2398 12.531L31.1436 12.4356L31.0465 12.3414L30.9481 12.248L30.8494 12.156L30.7494 12.0647L30.6486 11.9745L30.5472 11.8855L30.4448 11.7975L30.3413 11.7103L30.2372 11.6244L30.1324 11.5396L30.0267 11.4559L29.9201 11.3731L29.813 11.2918L29.7048 11.2111L29.5961 11.1319L29.4866 11.0537L29.3762 10.9765L29.2654 10.9006L29.1534 10.8256L29.0414 10.7521L28.9281 10.6795L28.8145 10.6081L28.6999 10.5379L28.5849 10.4688L28.4693 10.401L28.3532 10.3344L28.236 10.2687L28.1188 10.2045L28.0007 10.1413L27.882 10.0794L27.7629 10.0188L27.6431 9.95924L27.5228 9.90087L27.4021 9.84387L27.2807 9.78796L27.1591 9.73342L27.0368 9.67996L26.9102 9.62615L26.7911 9.57696L26.6672 9.52715L26.5435 9.47887L26.4187 9.43151L26.294 9.38569L26.1687 9.34096L26.0432 9.2976L25.9171 9.25533L25.7909 9.21451L25.6642 9.17487L25.5372 9.13651L25.4101 9.09951L25.2825 9.06366L25.1544 9.02904L25.0265 8.99583L24.8983 8.96388L24.7693 8.93311L24.6407 8.90376L24.5116 8.87557L24.3824 8.84876L24.2527 8.82316L24.1233 8.7989L23.9935 8.7759L23.8637 8.75424L23.7334 8.73378L23.6034 8.71468L23.4731 8.69685L23.3427 8.68029L23.2122 8.66504L23.0817 8.65109L22.9512 8.63842L22.8206 8.62704L22.6898 8.61694L22.559 8.60812L22.4286 8.60061L22.298 8.59438L22.167 8.58943L22.0367 8.58577L21.9062 8.58339L21.7758 8.5823L21.6451 8.58248L21.6189 8.58278L21.6601 12.0575L21.7342 12.0571L21.8296 12.0577L21.9249 12.0591L22.0204 12.0616L22.1159 12.065L22.2115 12.0693L22.307 12.0746L22.4027 12.0808L22.4983 12.088L22.5939 12.0961L22.6896 12.1051L22.7851 12.1151L22.8807 12.1261L22.9763 12.1381L23.0717 12.1509L23.1672 12.1648L23.2626 12.1795L23.3578 12.1952L23.4531 12.212L23.5482 12.2296L23.6432 12.2482L23.7381 12.2678L23.8329 12.2882L23.9276 12.3097L24.022 12.3321L24.1164 12.3555L24.2105 12.3798L24.3045 12.4051L24.3983 12.4312L24.4919 12.4584L24.5854 12.4865L24.6786 12.5155L24.7715 12.5455L24.8642 12.5764L24.9567 12.6083L25.0489 12.6411L25.1409 12.6749L25.2326 12.7095L25.324 12.7451L25.4151 12.7817L25.5059 12.8191L25.5964 12.8576L25.6866 12.8969L25.7764 12.9371L25.8658 12.9782L25.9549 13.0203L26.0437 13.0633L26.1321 13.1072L26.2201 13.1521L26.3077 13.1978L26.3949 13.2443L26.4817 13.2919L26.5681 13.3402L26.654 13.3895L26.7396 13.4397L26.8247 13.4908L26.9092 13.5427L26.9933 13.5955L27.0769 13.6492L27.1601 13.7038L27.2427 13.7591L27.3249 13.8154L27.4066 13.8726L27.4877 13.9305L27.5682 13.9893L27.6482 14.0491L27.7277 14.1095L27.8066 14.1709L27.8849 14.2331L27.9627 14.296L28.0398 14.3598L28.1164 14.4244L28.1924 14.4898L28.2677 14.556L28.3425 14.623L28.4166 14.6908L28.4899 14.7593L28.5627 14.8287L28.6348 14.8988L28.7063 14.9697L28.7771 15.0413L28.8472 15.1138L28.9167 15.1869L28.9853 15.2608L29.0533 15.3354L29.1206 15.4108L29.1871 15.4868L29.2529 15.5636L29.318 15.6411L29.3824 15.7192L29.4459 15.7981L29.5087 15.8777L29.5707 15.958L29.632 16.0389L29.6925 16.1205L29.7521 16.2027L29.811 16.2856L29.869 16.3691L29.9263 16.4533L29.9827 16.5381L30.0382 16.6235L30.0929 16.7096L30.1468 16.7962L30.1999 16.8834L30.2521 16.9712L30.3034 17.0597L30.3538 17.1486L30.4034 17.2381L30.452 17.3282L30.4998 17.4189L30.5467 17.5101L30.5927 17.6018L30.6377 17.6941L30.6819 17.7868L30.7251 17.88L30.7674 17.9738L30.8087 18.068L30.8492 18.1627L30.8887 18.2579L30.9272 18.3535L30.9647 18.4496L31.0013 18.5461L31.0369 18.6431L31.0716 18.7404L31.1053 18.8382L31.138 18.9364L31.1697 19.0351L31.2004 19.134L31.2301 19.2333L31.2588 19.3331L31.2866 19.4331L31.3132 19.5336L31.3389 19.6343L31.3636 19.7354L31.3872 19.8368L31.4098 19.9385L31.4314 20.0405L31.4519 20.1428L31.4714 20.2453L31.4898 20.3482L31.5073 20.4513L31.5237 20.5546L31.5389 20.6582L31.5532 20.762L31.5664 20.866L31.5786 20.9702L31.5896 21.0747L31.5996 21.1792L31.6086 21.2841L31.6164 21.389L31.6232 21.4941L31.6288 21.5992L31.6335 21.7046L31.637 21.8101L31.6395 21.9157L31.6408 22.0214L31.6411 22.1272L31.6403 22.2331L31.6384 22.339L31.6354 22.445L31.6313 22.5511L31.6261 22.6571L31.6198 22.7631L31.6125 22.8693L31.604 22.9754L31.5944 23.0815L31.5837 23.1876L31.5719 23.2936L31.5591 23.3997L31.5451 23.5056L31.53 23.6115L31.5138 23.7173L31.4966 23.8231L31.4782 23.9287L31.4587 24.0342L31.4381 24.1397L31.4164 24.245L31.3936 24.3501L31.3697 24.4551L31.3447 24.56L31.3187 24.6646L31.2915 24.7691L31.2632 24.8734L31.2338 24.9775L31.2034 25.0813L31.1718 25.185L31.1392 25.2884L31.1054 25.3916L31.0706 25.4944L31.0347 25.5971L30.9977 25.6994L30.9597 25.8014L30.9205 25.9031L30.8803 26.0046L30.839 26.1057L30.7967 26.2065L30.7532 26.3069L30.7087 26.407L30.6632 26.5067L30.6166 26.606L30.5689 26.7049L30.5202 26.8034L30.4704 26.9015L30.4196 26.9992L30.3677 27.0964L30.3148 27.1932L30.2609 27.2896L30.206 27.3855L30.15 27.4809L30.093 27.5759L30.035 27.6702L29.976 27.7642L29.9159 27.8576L29.8549 27.9505L29.7928 28.0428L29.7298 28.1346L29.6658 28.2259L29.6008 28.3165L29.5348 28.4066L29.4679 28.4961L29.4 28.5851L29.3311 28.6733L29.2613 28.761L29.1905 28.8481L29.1187 28.9344L29.0461 29.0202L28.9725 29.1053L28.8979 29.1898L28.8225 29.2735L28.7461 29.3566L28.6688 29.439L28.5907 29.5207L28.5117 29.6016L28.4317 29.6819L28.3508 29.7613L28.2692 29.8401L28.1866 29.9181L28.1032 29.9953L28.0189 30.0719L27.9337 30.1475L27.8478 30.2224L27.761 30.2966L27.6735 30.3699L27.585 30.4424L27.4958 30.5141L27.4057 30.5849L27.3149 30.6549L27.2234 30.7241L27.131 30.7923L27.0378 30.8598L26.944 30.9264L26.8494 30.9921L26.754 31.0569L26.6578 31.1208L26.561 31.1838L26.4635 31.2459L26.3653 31.3071L26.2663 31.3672L26.1667 31.4266L26.0664 31.485L25.9655 31.5423L25.8638 31.5988L25.7616 31.6543L25.6587 31.7089L25.5551 31.7624L25.4509 31.815L25.3462 31.8665L25.2408 31.9171L25.1348 31.9667L25.0283 32.0152L24.9212 32.0628L24.8136 32.1093L24.7053 32.1548L24.5966 32.1992L24.4873 32.2427L24.3775 32.2851L24.2672 32.3264L24.1564 32.3667L24.0451 32.4059L23.9333 32.444L23.8211 32.4811L23.7084 32.517L23.5953 32.5519L23.4818 32.5857L23.3677 32.6183L23.2534 32.65L23.1386 32.6804L23.0234 32.7098L22.9078 32.7381L22.7919 32.7652L22.6756 32.7912L22.559 32.8161L22.442 32.8399L22.3247 32.8625L22.2072 32.8841L22.0893 32.9044L21.9711 32.9236L21.8527 32.9416L21.734 32.9585L21.615 32.9742L21.4958 32.9889L21.3765 33.0022L21.2568 33.0145L21.137 33.0256L21.017 33.0355L20.8968 33.0442L20.7765 33.0518L20.6559 33.0581L20.5353 33.0633L20.4145 33.0673L20.2936 33.0701L20.1726 33.0718L20.0514 33.0722L19.9302 33.0715L19.809 33.0695L19.6877 33.0664L19.5663 33.0621L19.4449 33.0565L19.3235 33.0498L19.2021 33.0419L19.0807 33.0328L18.9593 33.0224L18.8379 33.0109L18.7166 32.9981L18.5953 32.9842L18.4741 32.9691L18.3529 32.9528L18.2319 32.9352L18.111 32.9165L17.9902 32.8966L17.8695 32.8754L17.7489 32.8531L17.6286 32.8296L17.5084 32.8048L17.3883 32.7789L17.2685 32.7518L17.1488 32.7234L17.0294 32.6939L16.9102 32.6631L16.7912 32.6312L16.6725 32.5981L16.5541 32.5639L16.4359 32.5284L16.318 32.4918L16.2005 32.4539L16.0833 32.4149L15.9663 32.3747L15.8498 32.3333L15.7336 32.2908L15.6177 32.2471L15.5022 32.2021L15.3871 32.1561L15.2724 32.1089L15.1581 32.0605L15.0443 32.0111L14.9309 31.9603L14.8179 31.9085L14.7055 31.8556L14.5935 31.8015L14.4819 31.7462L14.3708 31.6899L14.2604 31.6324L14.1504 31.5738L14.0409 31.5141L13.932 31.4532L13.8237 31.3912L13.7158 31.3282L13.6087 31.2641L13.502 31.1988L13.396 31.1325L13.2907 31.0651L13.1859 30.9966L13.0818 30.927L12.9784 30.8563L12.8756 30.7847L12.7735 30.712L12.672 30.6381L12.5713 30.5633L12.4712 30.4874L12.3719 30.4105L12.2734 30.3326L12.1756 30.2536L12.0785 30.1737L11.9821 30.0927L11.8866 30.0108L11.7918 29.9278L11.6978 29.8439L11.6047 29.759L11.5124 29.6731L11.4208 29.5863L11.3301 29.4985L11.2403 29.4098L11.1514 29.3201L11.0633 29.2295L10.976 29.1381L10.8897 29.0456L10.8043 28.9523L10.7198 28.8581L10.6361 28.763L10.5535 28.667L10.4717 28.5701L10.3909 28.4724L10.311 28.3738L10.2322 28.2744L10.1543 28.1741L10.0774 28.0731L10.0015 27.9711L9.92648 27.8685L9.85257 27.765L9.77975 27.6607L9.70784 27.5556L9.63702 27.4498L9.56726 27.3432L9.49854 27.2359L9.43088 27.1278L9.3643 27.019L9.29879 26.9094L9.23437 26.7992L9.17104 26.6882L9.10881 26.5767L9.04771 26.4643L8.98771 26.3514L8.92884 26.2378L8.87111 26.1235L8.81451 26.0086L8.75907 25.8931L8.70478 25.777L8.65165 25.6601L8.59969 25.5429L8.54891 25.425L8.49931 25.3064L8.45089 25.1874L8.40368 25.0679L8.35766 24.9477L8.31285 24.8271L8.26925 24.706L8.22688 24.5842L8.18573 24.4621L8.14581 24.3395L8.10713 24.2164L8.0697 24.093L8.03351 23.969L7.99857 23.8446L7.96489 23.7198L7.93248 23.5945L7.90133 23.469L7.87145 23.343L7.84286 23.2166L7.81554 23.0899L7.78952 22.9629L7.76478 22.8355L7.74133 22.7078L7.71919 22.5798L7.69835 22.4515L7.67881 22.323L7.66059 22.1941L7.64368 22.0651L7.62809 21.9357L7.61381 21.8061L7.60086 21.6764L7.58923 21.5464L7.57894 21.4162L7.56998 21.286L7.56234 21.1554L7.55605 21.0248L7.5511 20.8941L7.54749 20.7631L7.54521 20.6321L7.54429 20.501L7.54471 20.3698L7.54648 20.2385L7.54961 20.1072L7.55407 19.9759L7.5599 19.8444L7.56708 19.7131L7.57561 19.5816L7.5855 19.4502L7.59673 19.3188L7.60933 19.1875L7.6233 19.0561L7.63861 18.925L7.65528 18.7938L7.67331 18.6627L7.69269 18.5317L7.71343 18.4009L7.73552 18.2701L7.75898 18.1396L7.78379 18.0091L7.80995 17.8789L7.83746 17.7489L7.86633 17.619L7.89655 17.4893L7.92811 17.3599L7.96102 17.2307L7.99529 17.1018L8.03089 16.9731L8.06783 16.8447L8.10612 16.7166L8.14574 16.5888L8.18671 16.4612L8.229 16.3341L8.27261 16.2073L8.31757 16.0809L8.36384 15.9548L8.41143 15.8291L8.46034 15.7038L8.51057 15.5789L8.56211 15.4544L8.61495 15.3304L8.6691 15.2068L8.72455 15.0837L8.78129 14.9611L8.83932 14.8389L8.89864 14.7172L8.95925 14.5961L9.02113 14.4755L9.08429 14.3555L9.14871 14.236L9.2144 14.1171L9.28134 13.9987L9.34953 13.8809L9.41898 13.7638L9.48967 13.6472L9.56159 13.5313L9.63475 13.4161L9.70911 13.3014L9.78475 13.1875L9.86148 13.0742L9.93957 12.9617L10.0188 12.8498L10.0991 12.7386L10.1808 12.6282L10.2635 12.5185L10.3475 12.4096L10.4326 12.3014L10.5188 12.1941L10.6062 12.0875L10.6948 11.9817L10.7845 11.8767L10.8753 11.7725L10.9672 11.6692L11.0603 11.5668L11.1544 11.4651L11.2497 11.3644L11.346 11.2645L11.4434 11.1656L11.5418 11.0675L11.6414 10.9703L11.742 10.8741L11.8437 10.7788L11.9463 10.6845L12.05 10.5911L12.1548 10.4987L12.2604 10.4072L12.3671 10.3168L12.4748 10.2273L12.5835 10.1389L12.6931 10.0514L12.8038 9.96506L12.9153 9.87969L13.0278 9.79542L13.1412 9.71215L13.2555 9.62996L13.3707 9.54887L13.4868 9.46887L13.6038 9.38996L13.7217 9.31224L13.8405 9.23551L13.96 9.15996L14.0805 9.08555L14.2017 9.01226L14.3238 8.94014L14.4467 8.86917L14.5704 8.79937L14.6948 8.73075L14.82 8.66332L14.946 8.59708L15.0728 8.53205L15.2002 8.46822L15.3284 8.40561L15.4573 8.34423L15.5869 8.28408L15.7172 8.22517L15.8482 8.16751L15.9798 8.11111L16.1121 8.05597L16.245 8.0021L16.3785 7.94951L16.5127 7.8982L16.6474 7.84818L16.7828 7.79946L16.9187 7.75205L17.0551 7.70594L17.1921 7.66115L17.3296 7.61768L17.4677 7.57554L17.6062 7.53473L17.7453 7.49526L17.8848 7.45714L18.0247 7.42036L18.1652 7.38495L18.3061 7.35089L18.4474 7.31821L18.5891 7.28688L18.7312 7.25694L18.8737 7.22837L19.0166 7.2012L19.1598 7.17541L19.3033 7.15101L19.4472 7.12801L19.5914 7.10641L19.7358 7.08622L19.8806 7.06743L19.9346 7.06096ZM19.9957 12.2147L19.954 8.70177L19.8354 8.71836L19.7078 8.73747L19.5802 8.75786L19.4534 8.77942L19.3264 8.80229L19.2 8.82634L19.0739 8.85162L18.9483 8.87808L18.8229 8.9058L18.6978 8.93475L18.5731 8.96488L18.4489 8.99621L18.3248 9.02879L18.2057 9.06133L18.0787 9.09742L17.956 9.13351L17.8339 9.17078L17.7125 9.20915L17.5913 9.24878L17.4706 9.2896L17.3504 9.33151L17.2308 9.37451L17.1118 9.41878L16.9932 9.46406L16.8751 9.5106L16.7579 9.55815L16.6408 9.60696L16.5245 9.65678L16.4088 9.70769L16.2938 9.75969L16.1792 9.81287L16.0652 9.86715L15.9522 9.92233L15.8394 9.97878L15.7278 10.0361L15.6163 10.0948L15.5059 10.1541L15.3958 10.215L15.2867 10.2764L15.1783 10.3391L15.0705 10.4028L14.9635 10.4674L14.857 10.5332L14.7517 10.5998L14.6467 10.6675L14.5428 10.7361L14.4397 10.8057L14.3372 10.8763L14.2354 10.948L14.1348 11.0202L14.0347 11.0938L13.9354 11.1681L13.837 11.2434L13.7396 11.3195L13.6428 11.3967L13.547 11.4746L13.4521 11.5534L13.3579 11.6333L13.2649 11.7138L13.1726 11.7953L13.0811 11.8777L12.9907 11.9608L12.9012 12.0447L12.8124 12.1296L12.7248 12.2151L12.6381 12.3014L12.5522 12.3887L12.4674 12.4766L12.3835 12.5654L12.3006 12.6549L12.2187 12.7451L12.1377 12.8361L12.0576 12.9279L11.9788 13.0201L11.9008 13.1133L11.8238 13.2072L11.7479 13.3017L11.6731 13.3968L11.5991 13.4928L11.5263 13.5892L11.4545 13.6864L11.3838 13.7842L11.314 13.8827L11.2455 13.9816L11.1779 14.0812L11.1114 14.1815L11.0459 14.2823L10.9817 14.3836L10.9185 14.4855L10.8563 14.5881L10.7952 14.6911L10.7353 14.7946L10.6764 14.8987L10.6188 15.0031L10.5621 15.1081L10.5065 15.2138L10.4522 15.3196L10.3989 15.4261L10.3468 15.5331L10.2958 15.6402L10.246 15.7481L10.1973 15.8561L10.1498 15.9647L10.1033 16.0736L10.0581 16.1829L10.014 16.2925L9.97102 16.4026L9.92921 16.513L9.88866 16.6236L9.84911 16.7347L9.81093 16.8459L9.77375 16.9575L9.73784 17.0694L9.70302 17.1816L9.66948 17.294L9.63702 17.4066L9.60584 17.5194L9.57576 17.6326L9.54689 17.7459L9.51921 17.8594L9.49271 17.9731L9.4674 18.087L9.44326 18.2011L9.42034 18.3152L9.39859 18.4295L9.37802 18.5441L9.35867 18.6586L9.34048 18.7733L9.32351 18.888L9.3077 19.0029L9.2931 19.1178L9.27968 19.2328L9.26745 19.3478L9.25641 19.4629L9.24657 19.578L9.23791 19.693L9.23044 19.8081L9.22415 19.9232L9.21905 20.0382L9.21514 20.1532L9.21241 20.2681L9.21086 20.3831L9.21049 20.498L9.2113 20.6127L9.21329 20.7273L9.21645 20.8419L9.22078 20.9562L9.22629 21.0706L9.23296 21.1848L9.2408 21.2987L9.24981 21.4126L9.25997 21.5262L9.2713 21.6397L9.28378 21.753L9.29741 21.8661L9.3122 21.979L9.32812 22.0915L9.34521 22.204L9.36341 22.316L9.38277 22.4279L9.40326 22.5395L9.42487 22.6507L9.44761 22.7618L9.47147 22.8724L9.49646 22.9829L9.52253 23.0928L9.54975 23.2025L9.57806 23.3119L9.60748 23.4209L9.63793 23.5294L9.66957 23.6377L9.70221 23.7455L9.73602 23.853L9.77084 23.9601L9.80675 24.0666L9.84375 24.1727L9.88175 24.2784L9.92084 24.3837L9.96102 24.4885L10.0022 24.5928L10.0444 24.6966L10.0877 24.8L10.1319 24.9028L10.1773 25.0051L10.2236 25.1069L10.2709 25.2081L10.3193 25.3088L10.3686 25.409L10.4189 25.5085L10.4702 25.6076L10.5225 25.7061L10.5758 25.8039L10.6299 25.9011L10.6851 25.9978L10.7412 26.0938L10.7983 26.1891L10.8563 26.284L10.9152 26.3781L10.975 26.4715L11.0358 26.5644L11.0974 26.6564L11.16 26.748L11.2234 26.8387L11.2878 26.9288L11.3529 27.0181L11.419 27.1068L11.4859 27.1947L11.5538 27.282L11.6223 27.3684L11.6918 27.4541L11.762 27.5391L11.8331 27.6234L11.905 27.7068L11.9778 27.7896L12.0512 27.8714L12.1255 27.9526L12.2005 28.0329L12.2763 28.1124L12.3528 28.1911L12.4302 28.2691L12.5082 28.3461L12.587 28.4224L12.6666 28.4979L12.7467 28.5724L12.8277 28.6462L12.9092 28.7191L12.9915 28.7911L13.0745 28.8622L13.1581 28.9325L13.2424 29.002L13.3273 29.0704L13.4128 29.1381L13.499 29.2048L13.5858 29.2707L13.6733 29.3356L13.7612 29.3996L13.8498 29.4627L13.9389 29.5249L14.0287 29.5861L14.119 29.6465L14.2098 29.7059L14.3012 29.7643L14.3931 29.8219L14.4855 29.8784L14.5784 29.9341L14.6718 29.9887L14.7657 30.0423L14.8601 30.0951L14.9548 30.1468L15.0502 30.1976L15.1459 30.2474L15.242 30.2961L15.3387 30.3441L15.4357 30.3909L15.5331 30.4368L15.6308 30.4816L15.7291 30.5255L15.8276 30.5683L15.9265 30.6101L16.0257 30.6511L16.1254 30.6909L16.2252 30.7297L16.3255 30.7675L16.426 30.8043L16.5268 30.8401L16.6279 30.8749L16.7294 30.9087L16.831 30.9413L16.9329 30.9731L17.0351 31.0037L17.1375 31.0333L17.24 31.062L17.3428 31.0895L17.4458 31.1161L17.549 31.1416L17.6524 31.1661L17.7559 31.1895L17.8597 31.212L17.9635 31.2333L18.0674 31.2536L18.1716 31.2729L18.2757 31.2911L18.38 31.3084L18.4844 31.3245L18.5888 31.3397L18.6934 31.3538L18.7979 31.3669L18.9026 31.3789L19.0072 31.3899L19.1119 31.3998L19.2167 31.4087L19.3214 31.4165L19.4261 31.4234L19.5308 31.4291L19.6354 31.434L19.7401 31.4377L19.8447 31.4404L19.9491 31.4421L20.0536 31.4427L20.1579 31.4423L20.2622 31.4409L20.3664 31.4385L20.4704 31.4351L20.5744 31.4306L20.6781 31.4251L20.7817 31.4186L20.8852 31.4111L20.9886 31.4025L21.0917 31.393L21.1947 31.3824L21.2975 31.3709L21.4 31.3583L21.5024 31.3448L21.6045 31.3303L21.7064 31.3148L21.808 31.2982L21.9093 31.2808L22.0105 31.2622L22.1113 31.2428L22.2118 31.2224L22.3122 31.201L22.412 31.1786L22.5117 31.1553L22.6109 31.131L22.7099 31.1058L22.8086 31.0796L22.9068 31.0524L23.0047 31.0243L23.1023 30.9953L23.1994 30.9654L23.2961 30.9345L23.3926 30.9027L23.4885 30.87L23.584 30.8363L23.6791 30.8018L23.7737 30.7663L23.8679 30.73L23.9617 30.6927L24.055 30.6545L24.1478 30.6155L24.2401 30.5756L24.332 30.5349L24.4233 30.4932L24.5142 30.4507L24.6046 30.4073L24.6942 30.3632L24.7837 30.3181L24.8723 30.2722L24.9606 30.2254L25.048 30.178L25.1351 30.1296L25.2217 30.0804L25.3075 30.0304L25.3928 29.9796L25.4776 29.9281L25.5616 29.8757L25.6452 29.8225L25.7279 29.7687L25.8102 29.714L25.8919 29.6584L25.9728 29.6022L26.053 29.5454L26.1328 29.4876L26.2118 29.4293L26.2901 29.3701L26.3678 29.3102L26.4446 29.2498L26.521 29.1884L26.5967 29.1264L26.6713 29.0639L26.7457 29.0003L26.819 28.9364L26.8917 28.8719L26.9638 28.8063L27.0349 28.7405L27.1055 28.6739L27.1753 28.6066L27.2442 28.5388L27.3125 28.4702L27.38 28.4011L27.4467 28.3314L27.5126 28.2611L27.5777 28.1902L27.6422 28.1188L27.7057 28.0469L27.7686 27.9741L27.8305 27.9011L27.8916 27.8274L27.952 27.7531L28.0115 27.6785L28.0702 27.6031L28.1281 27.5274L28.1852 27.4511L28.2414 27.3743L28.2967 27.2972L28.3513 27.2193L28.4049 27.1412L28.4577 27.0626L28.5098 26.9834L28.5607 26.9041L28.6111 26.8241L28.6605 26.7436L28.709 26.6629L28.7566 26.5817L28.8035 26.5L28.8492 26.4182L28.8943 26.3357L28.9384 26.2531L28.9815 26.1701L29.0239 26.0864L29.0652 26.003L29.1058 25.9186L29.1453 25.8345L29.1842 25.7495L29.2218 25.6647L29.2588 25.5791L29.2948 25.4937L29.3298 25.4079L29.364 25.3217L29.3973 25.2352L29.4295 25.1488L29.461 25.0618L29.4914 24.9747L29.5209 24.8874L29.5496 24.7999L29.5773 24.7121L29.6041 24.6241L29.6299 24.5361L29.6548 24.4478L29.6787 24.3594L29.7018 24.2708L29.7239 24.1821L29.7451 24.0933L29.7654 24.0041L29.7847 23.9151L29.8031 23.8259L29.8205 23.7367L29.837 23.6473L29.8526 23.5576L29.8672 23.4682L29.8809 23.3786L29.8937 23.2889L29.9055 23.1993L29.9164 23.1096L29.9264 23.0196L29.9354 22.9302L29.9436 22.8401L29.9507 22.7504L29.9569 22.6609L29.9623 22.5711L29.9667 22.4814L29.9701 22.3919L29.9727 22.3021L29.9742 22.2128L29.9749 22.1231L29.9747 22.0338L29.9736 21.9444L29.9715 21.8554L29.9685 21.7662L29.9646 21.6772L29.9597 21.5886L29.954 21.4997L29.9474 21.4111L29.9399 21.3229L29.9315 21.2344L29.9221 21.1465L29.9118 21.0584L29.9007 20.9708L29.8888 20.8832L29.8758 20.7958L29.862 20.7087L29.8474 20.6219L29.8318 20.5352L29.8154 20.4489L29.798 20.3624L29.7798 20.2766L29.7608 20.1911L29.7409 20.1056L29.7201 20.0203L29.6986 19.9358L29.676 19.851L29.6527 19.7669L29.6286 19.6829L29.6036 19.5994L29.5777 19.5161L29.551 19.4331L29.5236 19.3506L29.4953 19.2684L29.466 19.1863L29.4362 19.105L29.4054 19.0238L29.3738 18.9431L29.3415 18.8627L29.3083 18.7826L29.2744 18.7032L29.2396 18.624L29.2041 18.5453L29.1678 18.4671L29.1307 18.3891L29.0928 18.3116L29.0544 18.2348L29.0149 18.1581L28.9749 18.0822L28.9341 18.0068L28.8925 17.9314L28.8503 17.857L28.8072 17.7828L28.7635 17.7092L28.7189 17.636L28.6739 17.5635L28.6279 17.4912L28.5815 17.4198L28.5342 17.3488L28.4863 17.2783L28.4376 17.2082L28.3883 17.1389L28.3385 17.0701L28.2877 17.0017L28.2366 16.9341L28.1846 16.8669L28.1322 16.8004L28.0789 16.7343L28.0251 16.669L27.9707 16.6041L27.9157 16.5399L27.8601 16.4764L27.8037 16.4133L27.747 16.3511L27.6896 16.2892L27.6317 16.2283L27.573 16.1677L27.514 16.108L27.4542 16.0486L27.394 15.9901L27.3334 15.9323L27.2721 15.8751L27.2102 15.8184L27.1478 15.7626L27.085 15.7074L27.0215 15.6527L26.9579 15.5991L26.8935 15.5457L26.8287 15.4932L26.7634 15.4415L26.6976 15.3902L26.6314 15.3399L26.5649 15.2903L26.4977 15.2412L26.4299 15.1928L26.3622 15.1454L26.2936 15.0984L26.225 15.0525L26.1558 15.0071L26.0862 14.9623L26.0161 14.9183L25.9459 14.8752L25.875 14.8327L25.804 14.7911L25.7324 14.75L25.6608 14.7099L25.5887 14.6704L25.5161 14.6316L25.4433 14.5936L25.3703 14.5565L25.2968 14.52L25.223 14.4842L25.1491 14.4493L25.075 14.4152L25.0001 14.3817L24.9256 14.3491L24.8505 14.3173L24.775 14.2861L24.6995 14.2559L24.6238 14.2264L24.5478 14.1977L24.4714 14.1696L24.3951 14.1425L24.3184 14.1161L24.2415 14.0904L24.1647 14.0656L24.0875 14.0416L24.0103 14.0183L23.9325 13.9958L23.8549 13.9741L23.7772 13.9532L23.6993 13.9331L23.6213 13.9138L23.5429 13.8952L23.4647 13.8775L23.3866 13.8606L23.308 13.8444L23.2293 13.829L23.151 13.8145L23.0722 13.8007L22.9936 13.7877L22.9146 13.7754L22.836 13.7641L22.7568 13.7533L22.6782 13.7436L22.5993 13.7345L22.5204 13.7262L22.4416 13.7188L22.3626 13.7121L22.2839 13.7061L22.2048 13.7011L22.1261 13.6967L22.0476 13.6931L21.9685 13.6903L21.89 13.6883L21.8115 13.6871L21.733 13.6867L21.6794 13.6869L21.72 17.1191L21.7443 17.1191L21.7894 17.1198L21.8346 17.1209L21.8798 17.1223L21.9251 17.1244L21.9705 17.1269L22.0158 17.1298L22.0613 17.1332L22.1067 17.1371L22.1523 17.1415L22.1978 17.1463L22.2434 17.1516L22.289 17.1574L22.3346 17.1637L22.3802 17.1704L22.4258 17.1777L22.4715 17.1854L22.517 17.1936L22.5627 17.2023L22.6082 17.2114L22.6537 17.2211L22.6993 17.2312L22.7448 17.2419L22.7902 17.253L22.8357 17.2645L22.881 17.2766L22.9263 17.2891L22.9716 17.3021L23.0167 17.3157L23.0618 17.3297L23.1068 17.3442L23.1518 17.3592L23.1967 17.3747L23.2415 17.3906L23.2861 17.4071L23.3307 17.424L23.3751 17.4413L23.4195 17.4592L23.4637 17.4776L23.5077 17.4964L23.5517 17.5158L23.5956 17.5356L23.6393 17.5559L23.6828 17.5767L23.7262 17.5979L23.7695 17.6196L23.8125 17.6419L23.8554 17.6645L23.8981 17.6877L23.9407 17.7113L23.983 17.7354L24.0252 17.76L24.0671 17.785L24.1089 17.8105L24.1505 17.8365L24.1918 17.863L24.2329 17.8898L24.2738 17.9171L24.3146 17.9451L24.355 17.9733L24.3952 18.0021L24.4352 18.0312L24.4749 18.0609L24.5144 18.091L24.5536 18.1215L24.5926 18.1525L24.6312 18.184L24.6696 18.2158L24.7077 18.2481L24.7456 18.2809L24.7831 18.3141L24.8204 18.3477L24.8573 18.3818L24.8939 18.4162L24.9302 18.4511L24.9663 18.4865L25.0019 18.5222L25.0373 18.5584L25.0724 18.595L25.107 18.632L25.1414 18.6694L25.1754 18.7072L25.2091 18.7454L25.2424 18.7841L25.2753 18.8231L25.3079 18.8624L25.3401 18.9022L25.3719 18.9424L25.4034 18.983L25.4345 19.024L25.4652 19.0652L25.4955 19.107L25.5253 19.149L25.5548 19.1914L25.5839 19.2342L25.6126 19.2774L25.6408 19.3209L25.6687 19.3648L25.6961 19.409L25.7231 19.4535L25.7497 19.4984L25.7757 19.5436L25.8015 19.5891L25.8267 19.6351L25.8515 19.6812L25.8758 19.7278L25.8997 19.7746L25.9231 19.8217L25.946 19.8691L25.9685 19.917L25.9905 19.965L26.012 20.0133L26.0331 20.062L26.0537 20.1109L26.0737 20.1601L26.0933 20.2095L26.1124 20.2592L26.131 20.3092L26.1491 20.3595L26.1667 20.4101L26.1837 20.4608L26.2003 20.5118L26.2163 20.5631L26.2318 20.6145L26.2468 20.6662L26.2613 20.7182L26.2753 20.7703L26.2887 20.8227L26.3016 20.8753L26.3139 20.9281L26.3257 20.9811L26.337 21.0343L26.3477 21.0877L26.3578 21.1411L26.3675 21.195L26.3766 21.2489L26.3851 21.3029L26.393 21.3571L26.4004 21.4115L26.4072 21.4661L26.4135 21.5208L26.4192 21.5756L26.4243 21.6305L26.4288 21.6856L26.4328 21.7409L26.4362 21.7961L26.439 21.8516L26.4412 21.9071L26.4429 21.9628L26.4439 22.0185L26.4445 22.0743L26.4443 22.1301L26.4437 22.1861L26.4424 22.2422L26.4405 22.2983L26.438 22.3545L26.4349 22.4107L26.4313 22.467L26.427 22.5232L26.4221 22.5796L26.4167 22.636L26.4107 22.6923L26.4039 22.7487L26.3967 22.8051L26.3888 22.8616L26.3804 22.918L26.3713 22.9743L26.3616 23.0307L26.3513 23.0871L26.3404 23.1434L26.3289 23.1997L26.3167 23.256L26.304 23.3121L26.2907 23.3683L26.2767 23.4244L26.2622 23.4805L26.2471 23.5364L26.2313 23.5923L26.2149 23.6481L26.1979 23.7038L26.1804 23.7594L26.1622 23.8149L26.1434 23.8703L26.124 23.9256L26.1039 23.9807L26.0833 24.0358L26.0621 24.0906L26.0403 24.1454L26.0178 24.2L25.9948 24.2544L25.9712 24.3087L25.9469 24.3629L25.9221 24.4168L25.8967 24.4705L25.8706 24.5241L25.844 24.5775L25.8167 24.6307L25.7889 24.6837L25.7605 24.7364L25.7315 24.789L25.7019 24.8413L25.6717 24.8934L25.6409 24.9453L25.6097 24.9969L25.5777 25.0483L25.5452 25.0994L25.5121 25.1502L25.4784 25.2009L25.4442 25.2511L25.4094 25.3012L25.374 25.351L25.338 25.4004L25.3016 25.4496L25.2645 25.4984L25.2268 25.547L25.1887 25.5952L25.1499 25.6431L25.1107 25.6907L25.0708 25.738L25.0305 25.7849L24.9895 25.8314L24.948 25.8776L24.906 25.9235L24.8635 25.969L24.8205 26.0141L24.7768 26.0589L24.7327 26.1032L24.6881 26.1471L24.643 26.1908L24.5973 26.234L24.5511 26.2767L24.5045 26.3191L24.4573 26.3611L24.4097 26.4026L24.3615 26.4437L24.3128 26.4843L24.2637 26.5246L24.214 26.5644L24.1639 26.6037L24.1134 26.6426L24.0624 26.6811L24.0108 26.7191L23.9589 26.7565L23.9065 26.7935L23.8537 26.8301L23.8003 26.8661L23.7466 26.9018L23.6924 26.9368L23.6377 26.9714L23.5827 27.0055L23.5272 27.0391L23.4713 27.0721L23.415 27.1046L23.3583 27.1366L23.3011 27.1681L23.2437 27.1991L23.1857 27.2294L23.1275 27.2593L23.0688 27.2886L23.0097 27.3174L22.9503 27.3456L22.8905 27.3732L22.8304 27.4003L22.7698 27.4268L22.709 27.4528L22.6478 27.4781L22.5863 27.5029L22.5244 27.5271L22.4622 27.5507L22.3997 27.5737L22.3368 27.5961L22.2738 27.618L22.2103 27.6391L22.1466 27.6598L22.0826 27.6797L22.0183 27.6991L21.9537 27.7179L21.8888 27.736L21.8237 27.7535L21.7584 27.7703L21.6927 27.7866L21.6268 27.8021L21.5608 27.8171L21.4944 27.8314L21.4278 27.8451L21.361 27.8581L21.294 27.8705L21.2268 27.8822L21.1594 27.8933L21.0918 27.9037L21.024 27.9134L20.9561 27.9225L20.8879 27.931L20.8197 27.9387L20.7512 27.9457L20.6826 27.9521L20.6138 27.9578L20.5449 27.9629L20.4758 27.9671L20.4067 27.9709L20.3375 27.9739L20.2681 27.9761L20.1986 27.9777L20.129 27.9786L20.0594 27.9789L19.9897 27.9784L19.9198 27.9772L19.8499 27.9753L19.78 27.9728L19.71 27.9695L19.6399 27.9655L19.5698 27.9609L19.4997 27.9555L19.4297 27.9494L19.3595 27.9426L19.2894 27.9351L19.2192 27.9269L19.1491 27.918L19.0789 27.9083L19.0088 27.8981L18.9387 27.887L18.8687 27.8752L18.7988 27.8628L18.7288 27.8496L18.6589 27.8358L18.5891 27.8211L18.5194 27.8059L18.4498 27.7898L18.3802 27.7731L18.3107 27.7557L18.2413 27.7375L18.1721 27.7186L18.1029 27.6991L18.034 27.6788L17.9651 27.6578L17.8964 27.6361L17.8278 27.6137L17.7594 27.5906L17.6912 27.5668L17.6231 27.5422L17.5552 27.517L17.4876 27.4911L17.42 27.4644L17.3527 27.4371L17.2857 27.4091L17.2188 27.3803L17.1522 27.3509L17.0858 27.3208L17.0197 27.29L16.9537 27.2584L16.888 27.2262L16.8227 27.1933L16.7576 27.1598L16.6927 27.1255L16.6282 27.0906L16.5639 27.055L16.5 27.0187L16.4363 26.9817L16.373 26.9441L16.31 26.9058L16.2474 26.8668L16.185 26.8271L16.123 26.7869L16.0614 26.7459L16.0001 26.7042L15.9393 26.662L15.8788 26.6191L15.8186 26.5755L15.7588 26.5312L15.6995 26.4864L15.6406 26.441L15.582 26.3948L15.5239 26.3481L15.4662 26.3007L15.4089 26.2527L15.3521 26.2041L15.2958 26.1548L15.2398 26.105L15.1844 26.0545L15.1294 26.0034L15.0748 25.9518L15.0208 25.8995L14.9672 25.8467L14.9142 25.7932L14.8617 25.7392L14.8096 25.6846L14.758 25.6295L14.707 25.5737L14.6566 25.5174L14.6066 25.4606L14.5572 25.4031L14.5083 25.3452L14.4599 25.2867L14.4122 25.2276L14.365 25.1681L14.3184 25.108L14.2723 25.0473L14.2268 24.9861L14.182 24.9245L14.1378 24.8623L14.094 24.7996L14.0509 24.7364L14.0085 24.6728L13.9667 24.6086L13.9255 24.544L13.8848 24.4789L13.8449 24.4133L13.8056 24.3472L13.7669 24.2808L13.7289 24.2138L13.6916 24.1464L13.6548 24.0786L13.6188 24.0103L13.5835 23.9416L13.5488 23.8725L13.5148 23.8031L13.4815 23.7331L13.4488 23.6628L13.4169 23.5921L13.3858 23.521L13.3552 23.4494L13.3254 23.3776L13.2963 23.3053L13.2679 23.2328L13.2403 23.1598L13.2135 23.0865L13.1873 23.0129L13.1618 22.939L13.1371 22.8647L13.1132 22.7901L13.09 22.7151L13.0676 22.64L13.0458 22.5644L13.0249 22.4886L13.0048 22.4125L12.9854 22.3361L12.9668 22.2595L12.949 22.1827L12.9319 22.1055L12.9157 22.0281L12.9002 21.9505L12.8855 21.8727L12.8716 21.7946L12.8585 21.7163L12.8462 21.6379L12.8347 21.5591L12.8239 21.4803L12.8141 21.4012L12.805 21.3221L12.7968 21.2426L12.7893 21.1631L12.7827 21.0833L12.7768 21.0035L12.7718 20.9235L12.7677 20.8434L12.7643 20.7632L12.7618 20.6829L12.7601 20.6024L12.7593 20.522L12.7592 20.4413L12.76 20.3606L12.7618 20.2799L12.7642 20.1991L12.7676 20.1181L12.7718 20.0372L12.7768 19.9563L12.7826 19.8753L12.7893 19.7943L12.7968 19.7133L12.8052 19.6323L12.8145 19.5513L12.8246 19.4703L12.8355 19.3894L12.8473 19.3085L12.8599 19.2276L12.8735 19.1468L12.8878 19.066L12.9029 18.9852L12.919 18.9046L12.9359 18.8241L12.9537 18.7436L12.9722 18.6632L12.9917 18.5831L13.0119 18.5029L13.0331 18.4229L13.0551 18.3431L13.0779 18.2633L13.1016 18.1837L13.1261 18.1043L13.1515 18.0251L13.1777 17.946L13.2048 17.8671L13.2327 17.7884L13.2614 17.71L13.2909 17.6317L13.3214 17.5537L13.3527 17.4759L13.3848 17.3982L13.4177 17.321L13.4514 17.2439L13.486 17.1671L13.5214 17.0905L13.5577 17.0142L13.5947 16.9383L13.6326 16.8626L13.6712 16.7872L13.7108 16.7122L13.751 16.6375L13.7922 16.5631L13.8341 16.4891L13.8768 16.4153L13.9204 16.3421L13.9648 16.2691L14.0098 16.1964L14.0558 16.1242L14.1026 16.0523L14.15 15.9809L14.1983 15.9099L14.2474 15.8392L14.2972 15.7691L14.3478 15.6993L14.3992 15.63L14.4513 15.5611L14.5042 15.4927L14.5578 15.4247L14.6123 15.3572L14.6675 15.2901L14.7233 15.2237L14.7799 15.1576L14.8373 15.0921L14.8954 15.0271L14.9542 14.9625L15.0138 14.8986L15.074 14.8351L15.135 14.7722L15.1967 14.7099L15.259 14.6481L15.3221 14.5868L15.3858 14.5261L15.4503 14.4661L15.5154 14.4065L15.5811 14.3476L15.6476 14.2892L15.7147 14.2316L15.7825 14.1744L15.8509 14.118L15.9199 14.0621L15.9897 14.0069L16.0599 13.9523L16.1309 13.8984L16.2025 13.8451L16.2747 13.7925L16.3475 13.7406L16.4208 13.6893L16.4948 13.6387L16.5695 13.5888L16.6446 13.5396L16.7203 13.4911L16.7967 13.4433L16.8735 13.3962L16.9509 13.3499L17.0288 13.3042L17.1074 13.2593L17.1864 13.2151L17.2659 13.1717L17.346 13.1291L17.4266 13.0871L17.5077 13.046L17.5892 13.0056L17.6713 12.966L17.7538 12.9271L17.8368 12.8891L17.9203 12.8518L18.0042 12.8153L18.0887 12.7796L18.1735 12.7447L18.2587 12.7107L18.3444 12.6774L18.4305 12.645L18.5169 12.6133L18.6038 12.5826L18.6912 12.5526L18.7788 12.5235L18.8669 12.4952L18.9553 12.4678L19.0441 12.4412L19.1332 12.4155L19.2227 12.3907L19.3125 12.3667L19.4026 12.3435L19.493 12.3212L19.5838 12.2999L19.6748 12.2794L19.7661 12.2598L19.8577 12.2411L19.9496 12.2232L19.9957 12.2147ZM21.1247 18.815L20.0768 19.0653L20.0153 13.8749L19.9659 13.886L19.8916 13.9035L19.8173 13.9218L19.7436 13.9407L19.6699 13.9603L19.5968 13.9807L19.5236 14.0019L19.4511 14.0235L19.3785 14.0461L19.3067 14.0691L19.2348 14.093L19.1634 14.1175L19.0923 14.1427L19.0215 14.1685L18.9513 14.195L18.8812 14.2222L18.8115 14.2501L18.7422 14.2785L18.673 14.3078L18.6048 14.3374L18.5365 14.368L18.4688 14.399L18.4013 14.4308L18.3344 14.4631L18.2677 14.4961L18.2017 14.5296L18.1359 14.5638L18.0707 14.5986L18.0058 14.634L17.9414 14.67L17.8774 14.7066L17.8141 14.7437L17.7508 14.7816L17.6882 14.8199L17.6262 14.8588L17.5646 14.8982L17.5033 14.9383L17.4427 14.979L17.3825 15.0201L17.3228 15.0618L17.2637 15.104L17.2048 15.1468L17.1467 15.1901L17.089 15.234L17.0318 15.2783L16.9753 15.3231L16.9193 15.3684L16.8637 15.4143L16.8086 15.4608L16.7542 15.5075L16.7003 15.5549L16.6469 15.6026L16.5941 15.6509L16.5418 15.6997L16.4902 15.7489L16.4391 15.7984L16.3885 15.8486L16.3386 15.8991L16.2892 15.9501L16.2405 16.0013L16.1921 16.0533L16.1446 16.1054L16.0976 16.1581L16.0511 16.2111L16.0054 16.2644L15.9601 16.3183L15.9157 16.3723L15.8716 16.4271L15.8283 16.4819L15.7855 16.5372L15.7434 16.593L15.7019 16.6489L15.661 16.7051L15.6208 16.7618L15.5812 16.8189L15.5422 16.8761L15.5039 16.9339L15.4663 16.9917L15.4293 17.0499L15.3928 17.1085L15.3572 17.1672L15.322 17.2265L15.2877 17.2857L15.2538 17.3454L15.2207 17.4053L15.1883 17.4654L15.1565 17.5258L15.1254 17.5864L15.0948 17.6474L15.0651 17.7083L15.0359 17.7698L15.0075 17.8312L14.9798 17.893L14.9526 17.9549L14.9261 18.0171L14.9004 18.0792L14.8753 18.1418L14.8509 18.2044L14.8271 18.2672L14.8041 18.3301L14.7818 18.3932L14.76 18.4565L14.739 18.5199L14.7187 18.5833L14.699 18.6471L14.68 18.7108L14.6618 18.7745L14.6442 18.8385L14.6272 18.9026L14.611 18.9667L14.5955 19.0309L14.5806 19.0951L14.5664 19.1595L14.5529 19.224L14.5401 19.2883L14.5279 19.3528L14.5165 19.4174L14.5058 19.4819L14.4957 19.5464L14.4862 19.6111L14.4775 19.6756L14.4695 19.7403L14.4621 19.8048L14.4554 19.8694L14.4494 19.9341L14.444 19.9986L14.4394 20.0631L14.4354 20.1277L14.432 20.1921L14.4294 20.2564L14.4274 20.3207L14.4261 20.3851L14.4254 20.4492L14.4255 20.5133L14.4261 20.5773L14.4275 20.6413L14.4295 20.7051L14.4321 20.7689L14.4354 20.8325L14.4394 20.896L14.444 20.9593L14.4493 21.0226L14.4552 21.0857L14.4618 21.1488L14.4689 21.2114L14.4768 21.2742L14.4852 21.3366L14.4944 21.3991L14.5041 21.4611L14.5145 21.5231L14.5255 21.5851L14.5371 21.6466L14.5494 21.7081L14.5622 21.7691L14.5758 21.8302L14.5898 21.891L14.6046 21.9516L14.6198 22.0118L14.6358 22.0721L14.6523 22.1318L14.6694 22.1915L14.6871 22.2508L14.7054 22.31L14.7243 22.3688L14.7437 22.4272L14.7638 22.4857L14.7845 22.5437L14.8057 22.6013L14.8274 22.6589L14.8497 22.7161L14.8727 22.7729L14.8961 22.8294L14.92 22.8856L14.9447 22.9416L14.9697 22.9972L14.9954 23.0525L15.0216 23.1074L15.0482 23.162L15.0756 23.2164L15.1032 23.2702L15.1315 23.3238L15.1603 23.3771L15.1897 23.4299L15.2195 23.4824L15.2498 23.5346L15.2806 23.5862L15.3119 23.6377L15.3437 23.6887L15.3759 23.7392L15.4088 23.7895L15.4419 23.8393L15.4757 23.8889L15.5097 23.9377L15.5444 23.9864L15.5795 24.0346L15.6149 24.0823L15.651 24.1298L15.6874 24.1767L15.7242 24.2231L15.7615 24.2692L15.7992 24.315L15.8372 24.3601L15.8758 24.4049L15.9148 24.4492L15.954 24.4931L15.9939 24.5365L16.0339 24.5793L16.0745 24.622L16.1154 24.664L16.1566 24.7055L16.1983 24.7466L16.2403 24.7872L16.2827 24.8274L16.3254 24.8671L16.3685 24.9062L16.4119 24.945L16.4557 24.9831L16.4998 25.0209L16.5441 25.0581L16.5888 25.0949L16.6339 25.1311L16.6794 25.1669L16.7249 25.2021L16.7709 25.2368L16.8172 25.2711L16.8638 25.3048L16.9106 25.338L16.9577 25.3707L17.005 25.4029L17.0527 25.4345L17.1005 25.4656L17.1486 25.4962L17.1971 25.5264L17.2457 25.5559L17.2945 25.585L17.3437 25.6135L17.3928 25.6414L17.4423 25.6689L17.4922 25.6959L17.5421 25.7222L17.5922 25.7481L17.6425 25.7733L17.6931 25.7981L17.7437 25.8223L17.7947 25.8461L17.8457 25.8692L17.8967 25.8918L17.9482 25.9139L17.9997 25.9354L18.0513 25.9564L18.1031 25.9769L18.155 25.9967L18.2072 26.0161L18.2592 26.0349L18.3117 26.0531L18.3639 26.0708L18.4164 26.088L18.469 26.1046L18.5217 26.1207L18.5745 26.1361L18.6273 26.1511L18.6803 26.1655L18.7333 26.1794L18.7863 26.1927L18.8394 26.2055L18.8925 26.2177L18.9457 26.2293L18.9989 26.2405L19.0522 26.2511L19.1055 26.2611L19.1588 26.2706L19.2121 26.2796L19.2655 26.288L19.3188 26.2959L19.372 26.3031L19.4254 26.3099L19.4787 26.3161L19.532 26.3219L19.5853 26.327L19.6386 26.3316L19.6917 26.3357L19.7448 26.3392L19.798 26.3422L19.851 26.3447L19.9039 26.3467L19.957 26.3481L20.0097 26.349L20.0625 26.3493L20.1152 26.3491L20.1677 26.3485L20.2204 26.3472L20.2728 26.3455L20.325 26.3433L20.3772 26.3405L20.4295 26.3372L20.4813 26.3334L20.5332 26.3291L20.5848 26.3243L20.6365 26.3191L20.6879 26.3131L20.7391 26.3069L20.7904 26.3001L20.8413 26.2927L20.892 26.2849L20.9428 26.2766L20.9933 26.2678L21.0436 26.2585L21.0937 26.2487L21.1438 26.2384L21.1934 26.2277L21.2428 26.2165L21.2923 26.2048L21.3415 26.1926L21.3904 26.1801L21.4391 26.167L21.4876 26.1534L21.536 26.1393L21.584 26.1249L21.6317 26.11L21.6795 26.0945L21.7268 26.0787L21.7738 26.0625L21.8207 26.0458L21.8672 26.0286L21.9137 26.011L21.9598 25.993L22.0055 25.9745L22.051 25.9557L22.0963 25.9363L22.1414 25.9166L22.1859 25.8965L22.2305 25.876L22.2746 25.8551L22.3183 25.8337L22.3619 25.812L22.405 25.7899L22.448 25.7673L22.4907 25.7443L22.5329 25.7211L22.5748 25.6974L22.6166 25.6733L22.6579 25.6489L22.6988 25.6241L22.7395 25.5989L22.7798 25.5733L22.8198 25.5475L22.8596 25.5212L22.8988 25.4947L22.9378 25.4677L22.9765 25.4404L23.0147 25.4129L23.0526 25.3849L23.0901 25.3566L23.1273 25.328L23.1641 25.2991L23.2007 25.2698L23.2367 25.2403L23.2724 25.2105L23.3077 25.1803L23.3426 25.1499L23.3772 25.1191L23.4114 25.0881L23.4452 25.0568L23.4785 25.0252L23.5116 24.9933L23.5442 24.9611L23.5765 24.9288L23.6083 24.8961L23.6397 24.8631L23.6707 24.8301L23.7014 24.7965L23.7315 24.763L23.7614 24.729L23.7907 24.6948L23.8197 24.6605L23.8484 24.6258L23.8764 24.5911L23.9042 24.556L23.9316 24.5208L23.9584 24.4853L23.9849 24.4496L24.0109 24.4139L24.0366 24.3777L24.0618 24.3414L24.0866 24.3051L24.1109 24.2684L24.1349 24.2317L24.1583 24.1948L24.1814 24.1577L24.204 24.1204L24.2262 24.083L24.248 24.0454L24.2693 24.0077L24.2902 23.9699L24.3107 23.9318L24.3307 23.8938L24.3502 23.8555L24.3694 23.8171L24.3881 23.7787L24.4064 23.74L24.4242 23.7013L24.4416 23.6625L24.4585 23.6237L24.475 23.5846L24.491 23.5456L24.5067 23.5062L24.5218 23.4672L24.5367 23.4276L24.5508 23.3886L24.5647 23.349L24.5782 23.3093L24.5911 23.2699L24.6037 23.2302L24.6157 23.1907L24.6275 23.1507L24.6386 23.1112L24.6495 23.0711L24.6597 23.0317L24.6697 22.9917L24.6791 22.9517L24.6881 22.912L24.6967 22.8723L24.7048 22.8321L24.7126 22.7924L24.7198 22.7523L24.7267 22.7127L24.7331 22.6729L24.7391 22.633L24.7447 22.5931L24.7498 22.5532L24.7545 22.5136L24.7587 22.4741L24.7626 22.4341L24.766 22.3946L24.769 22.355L24.7716 22.3154L24.7737 22.276L24.7755 22.2366L24.7767 22.1974L24.7777 22.158L24.7782 22.1186L24.7783 22.0796L24.7779 22.0406L24.7772 22.0017L24.776 21.9629L24.7745 21.9239L24.7725 21.8856L24.7701 21.8465L24.7674 21.8084L24.7642 21.7701L24.7607 21.7316L24.7567 21.6935L24.7524 21.6558L24.7476 21.6175L24.7425 21.5801L24.7369 21.5423L24.7311 21.5051L24.7247 21.4676L24.7181 21.4303L24.7111 21.3934L24.7038 21.3566L24.6959 21.3197L24.6877 21.2832L24.6793 21.2468L24.6704 21.2106L24.6612 21.1747L24.6515 21.1385L24.6417 21.1031L24.6313 21.0672L24.6207 21.0321L24.6097 20.9969L24.5983 20.962L24.5866 20.9271L24.5745 20.8924L24.5622 20.8582L24.5495 20.8241L24.5364 20.79L24.523 20.7563L24.5093 20.7225L24.4954 20.6895L24.4809 20.6561L24.4664 20.6233L24.4514 20.5908L24.4361 20.5582L24.4206 20.5261L24.4047 20.4941L24.3885 20.4622L24.372 20.4308L24.3552 20.3995L24.3382 20.3685L24.3208 20.3377L24.3031 20.3071L24.2853 20.2769L24.2671 20.2469L24.2486 20.217L24.2298 20.1876L24.2108 20.1583L24.1916 20.1293L24.172 20.1005L24.1523 20.0721L24.1322 20.0439L24.1119 20.016L24.0914 19.9883L24.0706 19.961L24.0497 19.9339L24.0283 19.907L24.0068 19.8805L23.9851 19.8542L23.9632 19.8282L23.941 19.8025L23.9187 19.7771L23.8961 19.7521L23.8733 19.7272L23.8503 19.7026L23.8271 19.6784L23.8037 19.6545L23.78 19.6308L23.7563 19.6075L23.7323 19.5845L23.7082 19.5618L23.6837 19.5392L23.6593 19.5171L23.6346 19.4952L23.6097 19.4738L23.5847 19.4525L23.5595 19.4317L23.5341 19.4111L23.5087 19.3908L23.483 19.3708L23.4572 19.3511L23.4313 19.3318L23.4052 19.3127L23.3789 19.294L23.3527 19.2756L23.3262 19.2574L23.2997 19.2397L23.2729 19.2222L23.246 19.2051L23.2192 19.1882L23.192 19.1717L23.1649 19.1555L23.1377 19.1397L23.1104 19.1241L23.0828 19.1089L23.0554 19.094L23.0278 19.0793L23.0001 19.0651L22.9725 19.0511L22.9445 19.0374L22.9167 19.0241L22.8887 19.0112L22.8607 18.9985L22.8326 18.9861L22.8043 18.9741L22.7763 18.9624L22.7479 18.9511L22.7196 18.94L22.6913 18.9292L22.6629 18.9188L22.6346 18.9087L22.6061 18.8989L22.5777 18.8893L22.5493 18.8802L22.5207 18.8713L22.4922 18.8628L22.4638 18.8546L22.4351 18.8467L22.4067 18.8391L22.3782 18.8319L22.3497 18.8249L22.3211 18.8182L22.2927 18.8119L22.2641 18.8059L22.2357 18.8001L22.2073 18.7947L22.1789 18.7896L22.1504 18.7848L22.1222 18.7803L22.0937 18.7761L22.0656 18.7722L22.0372 18.7686L22.009 18.7653L21.981 18.7623L21.9528 18.7597L21.9248 18.7572L21.8968 18.7551L21.8689 18.7533L21.841 18.7518L21.8132 18.7506L21.7857 18.7497L21.7579 18.749L21.7304 18.7486L21.7028 18.7485L21.6755 18.7488L21.6481 18.7492L21.6209 18.75L21.5937 18.7511L21.5668 18.7523L21.5398 18.754L21.513 18.7558L21.4863 18.7579L21.4597 18.7603L21.4332 18.763L21.4067 18.7659L21.3805 18.7691L21.3543 18.7725L21.3283 18.7762L21.3023 18.7802L21.2766 18.7844L21.2508 18.7889L21.2255 18.7936L21.1999 18.7986L21.1747 18.8038L21.1496 18.8092L21.1247 18.815Z" fill="#828282"/>
</svg>
