<svg width="165" height="30" viewBox="0 0 165 30" fill="none" xmlns="http://www.w3.org/2000/svg">
<g clip-path="url(#clip0_5170_165)">
<path d="M92.5162 22.1428H96.0135V8.95134H92.5162V22.1428ZM92.5162 6.89423H96.0135V3.75708H92.5162V6.89423Z" fill="#828282"/>
<path d="M98.2672 26.4629H101.764V20.6514H101.815C102.561 21.7829 103.77 22.5286 105.621 22.5286C109.015 22.5286 111.33 19.8286 111.33 15.5601C111.33 11.4457 109.093 8.59143 105.595 8.59143C103.795 8.59143 102.561 9.44006 101.713 10.5972H101.635V8.95143H98.2672V26.4629ZM104.875 19.6229C102.793 19.6229 101.687 18.0543 101.687 15.6629C101.687 13.2972 102.561 11.4201 104.747 11.4201C106.907 11.4201 107.781 13.1686 107.781 15.6629C107.781 18.1572 106.65 19.6229 104.875 19.6229Z" fill="#828282"/>
<path d="M118.306 22.5286C121.598 22.5286 123.86 20.9343 123.86 18.2857C123.86 15.2001 121.418 14.5829 119.206 14.1201C117.329 13.7343 115.58 13.6314 115.58 12.5001C115.58 11.5486 116.48 11.0343 117.843 11.0343C119.335 11.0343 120.235 11.5486 120.389 12.9629H123.551C123.295 10.3143 121.366 8.59143 117.895 8.59143C114.886 8.59143 112.52 9.95433 112.52 12.8086C112.52 15.6886 114.835 16.3314 117.2 16.7943C119 17.1543 120.671 17.2829 120.671 18.5429C120.671 19.4686 119.798 20.0601 118.255 20.0601C116.686 20.0601 115.606 19.3914 115.375 17.8743H112.135C112.34 20.6772 114.475 22.5286 118.306 22.5286Z" fill="#828282"/>
<path d="M137.137 22.1429V8.95142H133.64V16.5629C133.64 18.3114 132.637 19.5457 130.992 19.5457C129.5 19.5457 128.806 18.6971 128.806 17.1543V8.95142H125.335V17.7457C125.335 20.6257 126.98 22.5029 129.912 22.5029C131.764 22.5029 132.792 21.8086 133.692 20.6H133.769V22.1429H137.137Z" fill="#828282"/>
<path d="M139.4 22.1429H142.897V14.4801C142.897 12.7314 143.849 11.6001 145.263 11.6001C146.549 11.6001 147.294 12.3714 147.294 13.8629V22.1429H150.791V14.4801C150.791 12.7314 151.691 11.6001 153.157 11.6001C154.443 11.6001 155.189 12.3714 155.189 13.8629V22.1429H158.686V13.2714C158.686 10.3914 157.117 8.59143 154.34 8.59143C152.669 8.59143 151.28 9.46571 150.38 10.9057H150.329C149.686 9.51716 148.349 8.59143 146.677 8.59143C144.851 8.59143 143.566 9.51716 142.846 10.7257H142.769V8.95143H139.4V22.1429Z" fill="#828282"/>
<path d="M1.36816 22.1428H4.8653V3.75708H1.36816V22.1428Z" fill="#828282"/>
<path d="M13.4162 22.5286C17.5048 22.5286 20.3076 19.4943 20.3076 15.5601C20.3076 11.6257 17.5048 8.59143 13.4162 8.59143C9.32762 8.59143 6.52478 11.6257 6.52478 15.5601C6.52478 19.4943 9.32762 22.5286 13.4162 22.5286ZM13.4162 19.8543C11.2562 19.8543 10.0733 18.1314 10.0733 15.5601C10.0733 12.9886 11.2562 11.2401 13.4162 11.2401C15.5505 11.2401 16.7591 12.9886 16.7591 15.5601C16.7591 18.1314 15.5505 19.8543 13.4162 19.8543Z" fill="#828282"/>
<path d="M27.7448 26.6429C29.6991 26.6429 31.3963 26.1801 32.5019 25.1514C33.4791 24.2514 34.0705 22.9914 34.0705 21.1401V8.95143H30.702V10.3401H30.6505C29.8534 9.23433 28.6448 8.59143 26.9991 8.59143C23.6563 8.59143 21.2905 11.1114 21.2905 15.0457C21.2905 19.0314 24.1705 21.3457 27.102 21.3457C28.7734 21.3457 29.7763 20.6772 30.5476 19.8029H30.6248V21.2429C30.6248 23.0429 29.6734 23.9943 27.6934 23.9943C26.0734 23.9943 25.3276 23.3514 25.0448 22.5286H21.5734C21.9334 25.1001 24.1448 26.6429 27.7448 26.6429ZM27.6934 18.5429C25.8934 18.5429 24.7105 17.2314 24.7105 14.9943C24.7105 12.7829 25.8934 11.3943 27.6676 11.3943C29.7763 11.3943 30.8048 13.0401 30.8048 14.9686C30.8048 16.9229 29.9048 18.5429 27.6934 18.5429Z" fill="#828282"/>
<path d="M42.5708 22.5286C46.6593 22.5286 49.4622 19.4943 49.4622 15.5601C49.4622 11.6257 46.6593 8.59143 42.5708 8.59143C38.4822 8.59143 35.6793 11.6257 35.6793 15.5601C35.6793 19.4943 38.4822 22.5286 42.5708 22.5286ZM42.5708 19.8543C40.4108 19.8543 39.2279 18.1314 39.2279 15.5601C39.2279 12.9886 40.4108 11.2401 42.5708 11.2401C44.705 11.2401 45.9137 12.9886 45.9137 15.5601C45.9137 18.1314 44.705 19.8543 42.5708 19.8543Z" fill="#828282"/>
<path d="M159.956 6.78566C159.956 6.19393 160.436 5.71423 161.028 5.71423H163.171C163.763 5.71423 164.243 6.19393 164.243 6.78566C164.243 7.3774 163.763 7.8571 163.171 7.8571H161.028C160.436 7.8571 159.956 7.3774 159.956 6.78566Z" fill="#828282"/>
<path fill-rule="evenodd" clip-rule="evenodd" d="M70.6708 0C78.9548 0 85.671 6.71573 85.671 15C85.671 23.2843 78.9548 30 70.6708 30C62.3865 30 55.6708 23.2843 55.6708 15C55.6708 6.71573 62.3865 0 70.6708 0ZM70.1286 1.12244C68.4173 1.36327 66.7879 2.73831 65.523 5.03805C65.1561 5.70512 64.8251 6.4421 64.5366 7.23783C66.2565 6.80563 68.1458 6.55082 70.1286 6.5114V1.12244ZM63.2688 7.5981C63.6276 6.47219 64.0664 5.4363 64.5729 4.51549C65.1999 3.37544 65.944 2.39096 66.7825 1.63483C62.2233 2.95892 58.6297 6.55259 57.3056 11.1118C58.0617 10.2733 59.0462 9.5292 60.1862 8.9022C61.1071 8.39573 62.1429 7.95683 63.2688 7.5981ZM62.9086 8.86583C62.4764 10.5857 62.2216 12.475 62.1821 14.4578H56.7931C57.034 12.7465 58.409 11.1171 60.7088 9.8523C61.3759 9.4854 62.1128 9.15435 62.9086 8.86583ZM63.2667 14.4578C63.3115 12.294 63.623 10.2626 64.1384 8.46765C65.9333 7.95225 67.9648 7.6407 70.1286 7.59593V9.9381C69.3214 12.0047 67.675 13.6509 65.6084 14.4578H63.2667ZM62.1821 15.5422H56.7931C57.034 17.2535 58.409 18.8828 60.7088 20.1477C61.3759 20.5146 62.1128 20.8456 62.9086 21.1342C62.4764 19.4143 62.2216 17.525 62.1821 15.5422ZM64.1384 21.5324C63.623 19.7375 63.3115 17.706 63.2667 15.5422H65.6084C67.675 16.3491 69.3214 17.9954 70.1286 20.0619V22.4041C67.9648 22.3593 65.9333 22.0478 64.1384 21.5324ZM63.2688 22.4019C62.1429 22.0432 61.1071 21.6043 60.1862 21.0978C59.0462 20.4708 58.0617 19.7266 57.3056 18.8882C58.6297 23.4474 62.2233 27.0411 66.7825 28.3652C65.944 27.609 65.1999 26.6246 64.5729 25.4845C64.0664 24.5637 63.6276 23.5278 63.2688 22.4019ZM70.1286 28.8775C68.4173 28.6367 66.7879 27.2617 65.523 24.962C65.1561 24.2949 64.8251 23.5579 64.5366 22.7622C66.2565 23.1943 68.1458 23.4492 70.1286 23.4886V28.8775ZM74.559 28.3652C75.3974 27.609 76.1415 26.6246 76.7685 25.4845C77.2748 24.5637 77.7143 23.5278 78.0728 22.4019C79.1985 22.0432 80.2343 21.6043 81.1553 21.0978C82.2953 20.4708 83.28 19.7266 84.036 18.8882C82.7115 23.4474 79.1183 27.0411 74.559 28.3652ZM76.8053 22.7622C76.5165 23.5579 76.185 24.2949 75.8183 24.962C74.5536 27.2617 72.9242 28.6367 71.2129 28.8775V23.4886C73.1957 23.4492 75.085 23.1943 76.8053 22.7622ZM78.4328 21.1342C79.2285 20.8456 79.9658 20.5146 80.6325 20.1477C82.9328 18.8829 84.3075 17.2535 84.5483 15.5422H79.1595C79.1198 17.525 78.8648 19.4143 78.4328 21.1342ZM78.075 15.5422C78.03 17.706 77.7187 19.7375 77.2027 21.5324C75.4081 22.0478 73.3767 22.3593 71.2129 22.4041V20.0636C72.0199 17.9963 73.6667 16.3493 75.7338 15.5422H78.075ZM79.1595 14.4578H84.5483C84.3075 12.7465 82.9328 11.1171 80.6325 9.8523C79.9658 9.4854 79.2285 9.15435 78.4328 8.86583C78.8648 10.5857 79.1198 12.475 79.1595 14.4578ZM77.2027 8.46765C77.7187 10.2626 78.03 12.294 78.075 14.4578H75.7339C73.6667 13.6507 72.0199 12.0037 71.2129 9.93637V7.59593C73.3767 7.6407 75.4081 7.95225 77.2027 8.46765ZM78.0728 7.5981C79.1985 7.95683 80.2343 8.39573 81.1553 8.9022C82.2953 9.5292 83.28 10.2733 84.036 11.1118C82.7115 6.55259 79.1183 2.95892 74.559 1.63483C75.3974 2.39096 76.1415 3.37544 76.7685 4.51549C77.2748 5.4363 77.7143 6.47219 78.0728 7.5981ZM71.2129 1.12244C72.9242 1.36327 74.5536 2.73831 75.8183 5.03805C76.185 5.70513 76.5165 6.4421 76.8053 7.23783C75.085 6.80563 73.1957 6.55082 71.2129 6.5114V1.12244Z" fill="#828282"/>
</g>
<defs>
<clipPath id="clip0_5170_165">
<rect width="163.5" height="30" fill="white" transform="translate(0.75)"/>
</clipPath>
</defs>
</svg>
