<svg width="165" height="36" viewBox="0 0 165 36" fill="none" xmlns="http://www.w3.org/2000/svg">
<path fill-rule="evenodd" clip-rule="evenodd" d="M52.679 2.39594C52.679 1.17599 53.6787 0.187012 54.9121 0.187012H58.8024C59.6802 0.187012 60.5309 0.487918 61.2096 1.03851L62.3931 1.99846L62.4227 2.02516C62.45 2.01605 62.4773 2.00715 62.5047 1.99846C64.6397 1.32202 67.2302 1.19338 69.874 1.19338C72.5179 1.19338 75.1084 1.32202 77.2434 1.99846C77.2708 2.00715 77.2981 2.01605 77.3254 2.02516L77.355 1.99846L78.5385 1.03851C79.2172 0.487918 80.0679 0.187012 80.9457 0.187012H84.836C86.0694 0.187012 87.0691 1.17599 87.0691 2.39594V3.76146C87.0691 4.81797 86.6192 5.82561 85.8297 6.53718L84.875 7.39766C84.4089 7.81774 83.8495 8.12346 83.2419 8.29013L83.0161 8.35208C83.9007 10.44 84.3894 12.6718 84.3894 14.4773C84.3894 21.74 79.8465 24.8766 75.8436 27.6404C72.6914 29.8169 69.874 31.762 69.874 35.309C69.874 31.762 67.0567 29.8169 63.9045 27.6404C59.9016 24.8766 55.3587 21.74 55.3587 14.4773C55.3587 12.6718 55.8474 10.44 56.732 8.35208L56.5062 8.29013C55.8986 8.12346 55.3392 7.81774 54.8731 7.39766L53.9184 6.53718C53.1289 5.82561 52.679 4.81797 52.679 3.76146V2.39594ZM72.7771 20.4148C72.7771 20.7618 72.6242 21.0945 72.352 21.3399C72.0798 21.5853 71.7106 21.7231 71.3255 21.7231C70.9932 21.7231 70.6725 21.6203 70.416 21.4343C70.8527 22.5907 71.9704 23.6864 73.6704 21.9244C75.1711 20.2871 73.6036 16.8338 72.0765 14.7846C71.5675 14.1016 70.7319 13.7728 69.874 13.7728C69.0162 13.7728 68.1806 14.1016 67.6715 14.7846C66.1444 16.8338 64.577 20.2871 66.0777 21.9244C67.7777 23.6864 68.8954 22.5907 69.3321 21.4343C69.0756 21.6203 68.7549 21.7231 68.4225 21.7231C68.0375 21.7231 67.6683 21.5853 67.3961 21.3399C67.1239 21.0945 66.971 20.7618 66.971 20.4148H72.7771ZM64.3154 10.1925H60.2716L63.4585 12.7166C64.1598 13.272 65.1848 13.0945 65.6188 12.3424C66.1667 11.3929 65.4389 10.1925 64.3154 10.1925ZM75.4327 10.1925H79.4765L76.2896 12.7166C75.5883 13.272 74.5633 13.0945 74.1293 12.3424C73.5814 11.3929 74.3092 10.1925 75.4327 10.1925Z" fill="#828282"/>
<path d="M91.8864 25.065H95.4688V11.5518H91.8864V25.065ZM91.8864 9.4445H95.4688V6.23083H91.8864V9.4445Z" fill="#828282"/>
<path d="M97.7771 29.4904H101.36V23.5373H101.412C102.176 24.6963 103.414 25.4602 105.311 25.4602C108.788 25.4602 111.159 22.6943 111.159 18.3216C111.159 14.107 108.867 11.1831 105.284 11.1831C103.441 11.1831 102.176 12.0524 101.307 13.2377H101.228V11.5519H97.7771V29.4904ZM104.547 22.4836C102.413 22.4836 101.281 20.8768 101.281 18.427C101.281 16.0036 102.176 14.0807 104.415 14.0807C106.628 14.0807 107.523 15.8719 107.523 18.427C107.523 20.9821 106.364 22.4836 104.547 22.4836Z" fill="#828282"/>
<path d="M118.305 25.4602C121.677 25.4602 123.995 23.827 123.995 21.1138C123.995 17.9529 121.492 17.3207 119.227 16.8465C117.304 16.4514 115.513 16.346 115.513 15.187C115.513 14.2124 116.435 13.6855 117.831 13.6855C119.359 13.6855 120.281 14.2124 120.439 15.6612H123.679C123.415 12.948 121.44 11.1831 117.884 11.1831C114.802 11.1831 112.378 12.5792 112.378 15.5031C112.378 18.4533 114.749 19.1119 117.172 19.586C119.016 19.9548 120.729 20.0865 120.729 21.3773C120.729 22.3255 119.833 22.9314 118.252 22.9314C116.646 22.9314 115.539 22.2465 115.302 20.6924H111.983C112.194 23.5636 114.38 25.4602 118.305 25.4602Z" fill="#828282"/>
<path d="M137.597 25.0651V11.5519H134.014V19.349C134.014 21.1402 132.987 22.4046 131.301 22.4046C129.773 22.4046 129.062 21.5353 129.062 19.9548V11.5519H125.506V20.5607C125.506 23.5109 127.192 25.4338 130.195 25.4338C132.091 25.4338 133.145 24.7226 134.067 23.4846H134.146V25.0651H137.597Z" fill="#828282"/>
<path d="M139.914 25.0651H143.496V17.2153C143.496 15.4241 144.471 14.2651 145.92 14.2651C147.237 14.2651 148.001 15.0553 148.001 16.5831V25.0651H151.583V17.2153C151.583 15.4241 152.505 14.2651 154.007 14.2651C155.324 14.2651 156.087 15.0553 156.087 16.5831V25.0651H159.67V15.9773C159.67 13.027 158.063 11.1831 155.218 11.1831C153.506 11.1831 152.084 12.0787 151.162 13.5538H151.109C150.45 12.1314 149.081 11.1831 147.368 11.1831C145.498 11.1831 144.181 12.1314 143.444 13.3694H143.365V11.5519H139.914V25.0651Z" fill="#828282"/>
<path d="M1.44214 25.065H5.02458V6.23083H1.44214V25.065Z" fill="#828282"/>
<path d="M13.7842 25.4602C17.9725 25.4602 20.8437 22.3519 20.8437 18.3216C20.8437 14.2914 17.9725 11.1831 13.7842 11.1831C9.59583 11.1831 6.72461 14.2914 6.72461 18.3216C6.72461 22.3519 9.59583 25.4602 13.7842 25.4602ZM13.7842 22.7207C11.5715 22.7207 10.3598 20.9558 10.3598 18.3216C10.3598 15.6875 11.5715 13.8963 13.7842 13.8963C15.9705 13.8963 17.2086 15.6875 17.2086 18.3216C17.2086 20.9558 15.9705 22.7207 13.7842 22.7207Z" fill="#828282"/>
<path d="M28.4621 29.6748C30.464 29.6748 32.2025 29.2007 33.3352 28.147C34.3362 27.2251 34.942 25.9343 34.942 24.0377V11.5519H31.4913V12.9743H31.4386C30.6221 11.8416 29.384 11.1831 27.6981 11.1831C24.2738 11.1831 21.8503 13.7646 21.8503 17.7948C21.8503 21.8777 24.8006 24.2485 27.8035 24.2485C29.5157 24.2485 30.543 23.5636 31.3333 22.668H31.4123V24.1431C31.4123 25.987 30.4377 26.9616 28.4094 26.9616C26.7499 26.9616 25.986 26.3031 25.6962 25.4602H22.1401C22.5089 28.0943 24.7742 29.6748 28.4621 29.6748ZM28.4094 21.3773C26.5655 21.3773 25.3538 20.0338 25.3538 17.7421C25.3538 15.4768 26.5655 14.0543 28.383 14.0543C30.543 14.0543 31.5967 15.7402 31.5967 17.7158C31.5967 19.7177 30.6747 21.3773 28.4094 21.3773Z" fill="#828282"/>
<path d="M43.6497 25.4602C47.838 25.4602 50.7092 22.3519 50.7092 18.3216C50.7092 14.2914 47.838 11.1831 43.6497 11.1831C39.4614 11.1831 36.5902 14.2914 36.5902 18.3216C36.5902 22.3519 39.4614 25.4602 43.6497 25.4602ZM43.6497 22.7207C41.437 22.7207 40.2253 20.9558 40.2253 18.3216C40.2253 15.6875 41.437 13.8963 43.6497 13.8963C45.8361 13.8963 47.0741 15.6875 47.0741 18.3216C47.0741 20.9558 45.8361 22.7207 43.6497 22.7207Z" fill="#828282"/>
<path d="M159.508 8.60159C159.508 7.99542 159.999 7.50403 160.606 7.50403H162.801C163.407 7.50403 163.899 7.99542 163.899 8.60159C163.899 9.20772 163.407 9.69916 162.801 9.69916H160.606C159.999 9.69916 159.508 9.20772 159.508 8.60159Z" fill="#828282"/>
</svg>
