<svg width="32" height="32" viewBox="0 0 32 32" fill="none" xmlns="http://www.w3.org/2000/svg">
<rect width="32" height="32" rx="4" fill="#1F1F1F"/>
<path d="M16.8702 9.90864C16.8702 9.90864 8.1684 9.65191 6.79902 20.1228C6.28556 18.8958 6 17.5551 6 16.1285C6 10.3652 10.6506 6 16.8133 6C20.7791 6 24.1172 7.79752 26 10.5933L21.8633 12.4479C20.6932 10.9073 18.839 9.93727 16.8702 9.93727L16.8702 9.90864Z" fill="#D7DDCB"/>
<path d="M16.8702 22.4622C18.8103 22.4622 20.6649 21.4922 21.8347 19.9514L25.9431 21.7774C24.0599 24.5734 20.7505 26.3711 16.8134 26.3711C15.9575 26.3711 15.1298 26.2852 14.3594 26.1142C13.6749 25.8572 13.0187 25.5152 12.4193 25.03C10.7648 23.6606 10.194 22.2053 9.99438 21.5208C9.3095 19.3238 10.0516 17.2695 10.5078 16.1571C10.5365 19.6094 13.6177 22.4054 16.8989 22.4054L16.8702 22.4622Z" fill="#F1F6F6"/>
</svg>
