<svg width="256" height="256" viewBox="0 0 256 256" fill="none" xmlns="http://www.w3.org/2000/svg">
<rect width="256" height="256" rx="25" fill="#121212"/>
<path d="M135.152 73.8545C135.152 73.8545 59.7815 71.6308 47.9207 162.324C43.4734 151.697 41 140.084 41 127.727C41 77.8092 81.2809 40 134.659 40C169.008 40 197.921 55.5691 214.229 79.7849L178.399 95.8483C168.264 82.5046 152.204 74.1025 135.152 74.1025L135.152 73.8545Z" fill="#D7DDCB"/>
<path d="M135.152 182.587C151.956 182.587 168.019 174.185 178.151 160.839L213.736 176.655C197.425 200.872 168.76 216.443 134.659 216.443C127.246 216.443 120.077 215.699 113.404 214.218C107.476 211.992 101.792 209.03 96.6004 204.827C82.2696 192.966 77.3263 180.362 75.5969 174.433C69.6649 155.403 76.0929 137.611 80.0443 127.975C80.2923 157.877 106.98 182.094 135.4 182.094L135.152 182.587Z" fill="#F1F6F6"/>
</svg>
