<svg width="18" height="18" viewBox="0 0 18 18" fill="none" xmlns="http://www.w3.org/2000/svg">
<path d="M5.46462 7.49588C6.58686 7.49588 7.49662 6.58613 7.49662 5.46388C7.49662 4.34164 6.58686 3.43188 5.46462 3.43188C4.34237 3.43188 3.43262 4.34164 3.43262 5.46388C3.43262 6.58613 4.34237 7.49588 5.46462 7.49588Z" fill="#121212"/>
<path d="M5.46462 14.5679C6.58686 14.5679 7.49662 13.6581 7.49662 12.5359C7.49662 11.4137 6.58686 10.5039 5.46462 10.5039C4.34237 10.5039 3.43262 11.4137 3.43262 12.5359C3.43262 13.6581 4.34237 14.5679 5.46462 14.5679Z" fill="#121212"/>
<path d="M12.5369 7.49588C13.6591 7.49588 14.5689 6.58613 14.5689 5.46388C14.5689 4.34164 13.6591 3.43188 12.5369 3.43188C11.4146 3.43188 10.5049 4.34164 10.5049 5.46388C10.5049 6.58613 11.4146 7.49588 12.5369 7.49588Z" fill="#121212"/>
<path d="M12.5369 14.5679C13.6591 14.5679 14.5689 13.6581 14.5689 12.5359C14.5689 11.4137 13.6591 10.5039 12.5369 10.5039C11.4146 10.5039 10.5049 11.4137 10.5049 12.5359C10.5049 13.6581 11.4146 14.5679 12.5369 14.5679Z" fill="#121212"/>
</svg>
